<?xml version="1.0" encoding="UTF-8" standalone="no"?>
<!-- Created with Inkscape (http://www.inkscape.org/) -->

<svg
   xmlns:dc="http://purl.org/dc/elements/1.1/"
   xmlns:cc="http://creativecommons.org/ns#"
   xmlns:rdf="http://www.w3.org/1999/02/22-rdf-syntax-ns#"
   xmlns:svg="http://www.w3.org/2000/svg"
   xmlns="http://www.w3.org/2000/svg"
   xmlns:sodipodi="http://sodipodi.sourceforge.net/DTD/sodipodi-0.dtd"
   xmlns:inkscape="http://www.inkscape.org/namespaces/inkscape"
   width="412.932"
   height="439.384"
   viewBox="0 0 387.124 411.923"
   id="svg5655"
   version="1.1"
   inkscape:version="0.92.1 r15371"
   sodipodi:docname="doc-woman.svg">
  <defs
     id="defs5657" />
  <sodipodi:namedview
     id="base"
     pagecolor="#ffffff"
     bordercolor="#666666"
     borderopacity="1.0"
     inkscape:pageopacity="0.0"
     inkscape:pageshadow="2"
     inkscape:zoom="0.962373"
     inkscape:cx="179.852"
     inkscape:cy="125.824"
     inkscape:document-units="px"
     inkscape:current-layer="layer1"
     showgrid="false"
     units="px"
     inkscape:window-width="1920"
     inkscape:window-height="1016"
     inkscape:window-x="0"
     inkscape:window-y="27"
     inkscape:window-maximized="1"
     fit-margin-top="0"
     fit-margin-left="0"
     fit-margin-right="0"
     fit-margin-bottom="0"
     inkscape:snap-global="false" />
  <metadata
     id="metadata5660">
    <rdf:RDF>
      <cc:Work
         rdf:about="">
        <dc:format>image/svg+xml</dc:format>
        <dc:type
           rdf:resource="http://purl.org/dc/dcmitype/StillImage" />
        <dc:title></dc:title>
      </cc:Work>
    </rdf:RDF>
  </metadata>
  <g
     inkscape:label="Layer 1"
     inkscape:groupmode="layer"
     id="layer1"
     transform="translate(-12.4734,-610.192)">
    <g
       id="g1218"
       transform="matrix(1.13663,0,0,1.13663,-471.248,-35.7335)">
      <g
         id="g9892"
         style="display:inline"
         transform="matrix(0.79558,0,0,0.79558,-2392.49,382.853)">
        <g
           id="g9906"
           transform="translate(3453.76,-1.99489)">
          <path
             style="fill:#51075f;fill-opacity:1;stroke:none;stroke-width:0.768696;stroke-miterlimit:4;stroke-dasharray:none;stroke-opacity:1"
             d="m 301.174,647.888 c -68.208,0 -123.837,6.481 -123.837,14.43 0,7.949 55.631,14.43 123.837,14.43 68.206,0 123.836,-6.49 123.836,-14.43 0,-7.939 -55.628,-14.43 -123.836,-14.43 z m 0,2.077 c 51.723,0 93.906,4.466 93.906,9.93 0,5.464 -42.184,9.931 -93.906,9.931 -51.721,0 -93.907,-4.461 -93.907,-9.931 0,-5.47 42.184,-9.93 93.907,-9.93 z"
             id="path9908"
             inkscape:connector-curvature="0" />
          <path
             id="path9910"
             class="cls-1"
             d="m 301.174,667.313 c 40.06,0 72.733,-3.336 72.733,-7.418 0,-4.081 -32.672,-7.418 -72.733,-7.418 -40.06,0 -72.732,3.332 -72.732,7.418 0,4.086 32.673,7.418 72.732,7.418"
             style="fill:#51075f;fill-opacity:1;stroke:none;stroke-width:0.768696;stroke-miterlimit:4;stroke-dasharray:none;stroke-opacity:1"
             inkscape:connector-curvature="0" />
        </g>
      </g>
      <g
         transform="translate(911.146,218.127)"
         id="g4566">
        <g
           transform="translate(-447.125,-303.557)"
           id="g4917">
          <path
             sodipodi:nodetypes="cccccccccccccccccccccccccccccccccccccccc"
             id="path5005-7-5"
             d="m 69.3975,832.999 c 6.3603,6.736 13.2807,11.615 21.73,15.414 -3e-4,10e-4 -0.027,0.04 -0.027,0.04 2.1067,1.638 2.5474,1.991 3.2835,3.093 1.4033,2.749 2.1053,3.95 4.1525,5.671 0.8867,0.886 1.9775,1.541 3.1765,1.907 0.03,0 0.06,0 0.09,-0.01 0.07,0.04 5.375,3.133 6.968,3.634 1.994,0.63 2.567,-0.652 1.715,-1.574 -0.77,-0.831 -2.594,-1.549 -4.139,-2.451 -0.656,-0.408 -1.301,-0.833 -1.934,-1.276 0.08,-0.103 0.162,-0.21 0.236,-0.32 0.485,0.259 5.961,3.185 7.648,3.68 2.201,0.645 2.602,-0.746 1.561,-1.731 -0.936,-0.885 -2.968,-1.628 -4.735,-2.576 -0.968,-0.52 -1.813,-1.036 -2.537,-1.486 0.02,-0.05 0.05,-0.103 0.06,-0.156 0,-0.01 0.02,-0.06 0.02,-0.08 0.577,0.213 6.949,2.57 8.73,2.836 2.326,0.346 2.768,-1.161 1.679,-2.028 -0.981,-0.781 -3.126,-1.256 -4.985,-1.981 -1.479,-0.589 -2.928,-1.251 -4.34,-1.985 l 0.277,-0.535 c 0.858,0.128 6.906,1.026 8.769,0.891 2.492,-0.18 2.633,-1.832 1.318,-2.473 -1.187,-0.577 -3.52,-0.571 -5.609,-0.888 -2.48,-0.439 -5.19,-0.873 -7.507,-1.313 0.841,-0.956 3.848,-1.968 5.04,-3.254 1.736,-1.976 0.791,-3.96 -0.688,-3.5 -2.379,1.549 -4.995,4.554 -8.629,5.334 -0.06,0 -0.176,-0.04 -0.222,-0.04 -0.7585,0.05 -4.9031,-2.323 -5.2438,-2.746 0,-0.01 -0.02,0 -0.029,-0.01 -6.8378,-5.149 -10.7641,-13.297 -16.0086,-17.027 4.4887,-7.334 10.4261,-12.335 13.1907,-19.864 -2.3904,-6.104 -3.2838,-6.502 -5.839,-11.952 -1.4136,1.828 -2.8711,4.05 -4.2523,8.567 -5.073,8.159 -14.7015,17.903 -15.7621,23.11 -0.4039,4.018 2.4074,6.545 2.8407,7.073 z"
             style="fill:#784421;fill-opacity:1;fill-rule:evenodd;stroke:none;stroke-width:0.768696;stroke-miterlimit:4;stroke-dasharray:none;stroke-opacity:1"
             inkscape:connector-curvature="0" />
          <path
             sodipodi:nodetypes="cccssccscccccccccccscscsccccc"
             id="path10046"
             d="m 134.826,867.533 c -8.279,0.941 -10.951,2.41 -22.239,5.219 l -16.235,-2.184 c 1.3473,27.86 5.464,42.86 8.594,70.347 0.68,5.969 -1.069,-1.341 -0.693,7.924 0.181,4.443 6.937,20.29 7.844,29.563 -0.22,0.883 -0.979,0.866 0.08,2.884 -0.03,1.417 -0.105,3.266 -0.228,3.675 l -0.755,2.514 c -0.472,0.766 -0.869,2.01 -0.765,2.973 l 2.922,0.737 7.035,-0.318 c 0.114,-0.742 -0.03,-1.571 -0.675,-2.564 -0.508,-1.163 -1.716,-3.99 -1.996,-6.291 -0.196,-1.148 0.671,-0.712 -0.583,-3.113 -1.766,-12.056 0.533,-17.559 0.441,-27.448 l 2.524,-56.404 c 1.646,10.673 3.655,24.209 3.341,26.125 -3.706,41.65 7.592,45.105 6.012,56.815 -1.762,5.694 2.054,4.865 3.182,5.155 3.381,0.872 3.795,1.526 3.795,1.526 1.834,2.254 9.746,11.926 10.664,4.767 0.04,-0.329 -1.6,-1.15 -1.951,-2.088 0,0 -0.156,-0.893 -0.877,-2.423 -0.991,-2.101 -3.765,-5.915 -5.559,-7.352 0,0 -1.662,-0.833 -2.578,-4.568 -2.378,-15.082 3.458,-44.328 4.45,-46.29 1.29,-2.551 0.843,-59.285 0.843,-59.285 z"
             style="fill:#784421;fill-opacity:1;fill-rule:evenodd;stroke:none;stroke-width:0.987728;stroke-miterlimit:4;stroke-dasharray:none;stroke-opacity:1"
             inkscape:connector-curvature="0" />
          <path
             sodipodi:nodetypes="cccccccccccc"
             id="path10042"
             style="fill:#28170b;fill-opacity:1;fill-rule:evenodd;stroke:none;stroke-width:0.987728;stroke-miterlimit:4;stroke-dasharray:none;stroke-opacity:1"
             d="m 135.695,984.276 c 0,0 0.749,0.261 2.139,1.983 4.989,7.502 8.024,5.961 11.388,5.71 2.464,-0.587 0.75,0.552 0.36,0.533 -1.942,0.286 -4.453,0.881 -6.042,0.08 -3.332,-1.866 -5.833,-4.463 -7.931,-6.711 -0.755,1.593 -0.245,4.475 0.08,6.63 l -3.216,-0.02 c 1.73,-1.907 -1.809,-7.558 -2.814,-8.681 0,0 -1.073,-1.347 0.59,-0.97 1.771,0.314 1.678,0.338 3.441,0.815 z"
             inkscape:connector-curvature="0" />
          <path
             sodipodi:nodetypes="ccscc"
             id="path10044"
             style="fill:#2b1100;fill-opacity:1;fill-rule:evenodd;stroke:none;stroke-width:0.987728;stroke-miterlimit:4;stroke-dasharray:none;stroke-opacity:1"
             d="m 110.668,993.015 c 0,0 -1.322,-0.515 0.451,-0.597 3.13,1.21 9.906,-0.772 9.892,0.07 l -0.01,0.593 c -2.348,0.659 -5.691,0.624 -10.334,-0.06 z"
             inkscape:connector-curvature="0" />
          <path
             id="path10050"
             d="m 139.407,717.779 -49.3772,0.278 2.6444,19.511 c -2.5426,-1.241 -2.5046,1.571 -2.5046,1.571 -0.6454,3.526 0.7285,10.629 1.6384,11.93 0.9153,2.495 3.4147,2.569 5.0904,2.617 0.6083,3.756 0.4955,4.382 1.5681,9.003 0.9678,3.147 1.5875,5.135 3.8765,7.452 1.521,1.516 2.945,2.5 4.428,3.562 1.46,0.811 2.535,1.538 7.141,2.866 2.659,0.334 5.642,0.143 7.615,-1.194 4.087,-2.43 7.394,-5.473 9.627,-9.309 2.075,-3.564 2.21,-7.481 2.813,-12.891 2.443,0.75 3.307,-0.65 3.996,-1.507 0.995,-1.239 4.63,-12.186 3.762,-14.759 -0.694,-2.056 -2.165,-1.071 -3.487,0.935 0.138,-5.651 1.477,-11.308 1.546,-16.917 h -0.451 c 0.02,-1.05 0.07,-2.104 0.08,-3.152 z"
             style="fill:#784421;fill-opacity:1;fill-rule:evenodd;stroke:none;stroke-width:0.987728;stroke-miterlimit:4;stroke-dasharray:none;stroke-opacity:1"
             inkscape:connector-curvature="0"
             sodipodi:nodetypes="cccccccccccscccccccc" />
          <path
             id="path10052"
             style="fill:#784421;fill-opacity:1;fill-rule:evenodd;stroke:none;stroke-width:0.987728;stroke-miterlimit:4;stroke-dasharray:none;stroke-opacity:1"
             d="m 100.244,785.754 c 0.02,2.822 4.984,5.447 4.984,5.447 0,0 10.614,18.036 13.786,18.566 3.173,0.53 15.729,-24.18 15.729,-24.18 0,0 -8.748,-2.695 -11.087,-5.209 -1.208,-1.947 -0.707,-5.762 -0.707,-5.762 -3.387,2.765 -8.634,3.667 -15.134,-0.158 0.501,4.043 0.998,5.87 -0.306,6.886 -1.618,1.94 -7.266,3.831 -7.265,4.41 z"
             inkscape:connector-curvature="0"
             sodipodi:nodetypes="ccccccccc" />
          <circle
             style="color:#000000;clip-rule:nonzero;display:inline;overflow:visible;visibility:visible;opacity:1;isolation:auto;mix-blend-mode:normal;color-interpolation:sRGB;color-interpolation-filters:linearRGB;solid-color:#000000;solid-opacity:1;fill:#008000;fill-opacity:1;fill-rule:nonzero;stroke:none;stroke-width:0.5;stroke-linecap:butt;stroke-linejoin:miter;stroke-miterlimit:4;stroke-dasharray:none;stroke-dashoffset:0;stroke-opacity:1;color-rendering:auto;image-rendering:auto;shape-rendering:auto;text-rendering:auto;enable-background:accumulate"
             id="circle4896"
             cx="94.4507"
             cy="750.606"
             r="1.13371" />
          <path
             sodipodi:nodetypes="cssssssscssccccscscscsccscsssssscssscsccscccccscc"
             id="path10054"
             d="m 138.293,699.878 c 3.163,0.538 -3.401,5.43 -1.282,7.872 0.163,0.187 -1.122,-0.838 0.852,-3.329 1.455,-1.835 2.423,1.239 4.538,-0.806 0.82,-0.793 -0.662,-1.031 0.873,-2.853 2.007,-2.382 4.129,1.159 5.033,0.07 0,0 -0.443,-0.436 -0.55,-3.149 -0.02,-0.609 3.022,0.157 1.324,4.473 -0.713,1.812 -3.375,-3.054 -4.222,1.243 -0.82,2.109 -0.629,4.724 -2.724,3.69 0,0 -2.961,-1.436 -3.405,-0.332 -1.563,3.886 1.236,5.204 1.236,5.204 0,0 4.184,-0.571 6.491,5.072 0.725,5.522 -2.529,13.631 -4.599,15.973 -3.526,3.814 -1.514,5.052 -0.889,7.052 -0.933,2.195 -2.643,0.565 -2.779,2.033 -0.108,1.161 0.492,2.523 0.304,3.69 -1.804,1.314 0,0 -1.956,1.132 -0.46,0.266 -0.249,-0.576 1.243,-2.178 0.08,-0.96 -0.896,-0.959 -0.854,-1.868 0.121,-2.562 3.099,-1.094 2.271,-3.617 -1.227,-1.378 -0.295,-4.582 -0.402,-4.343 -1.711,3.804 -3.759,13.577 -4.715,18.321 1.831,-16.935 -1.427,-16.273 1.709,-25.486 0.276,0.352 -3.284,2.136 -5.777,1.244 -0.08,-0.03 4.245,-4.034 2.787,-4.796 -0.534,0.368 -2.396,3.494 -3.336,4.005 -0.721,0.392 0.179,-2.635 -0.72,-2.209 -0.489,0.232 -1.177,0.85 -2.051,0.866 -1.247,0.02 -2.775,-0.593 -3.807,-0.291 -1.887,0.552 -2.624,2.085 -4.129,1.673 -2.158,-0.59 -2.378,-1.134 -4.341,-0.982 -2.087,0.162 -1.922,4.684 -7.038,2.51 -0.131,-0.307 -0.749,-1.891 -2.699,-2.2 -2.446,-0.387 -5.5406,0.828 -6.4729,2.127 -1.25,1.741 1.615,-2.85 3.6309,-3.143 1.942,-0.282 -2.4448,-1.685 -4.111,2.417 0.5358,2.457 -3.389,2.818 -3.0479,5.775 3.0933,26.826 -5.3421,44.794 -7.33,40.534 1.3832,2.418 12.7769,-26.733 4.6519,-38.606 -1.9943,-3.418 -7.6778,-11.136 -9.2659,-18.702 -1.246,-5.936 1.6284,-9.829 2.4375,-10.065 -0.5594,-4.374 4.8949,-9.73 8.7623,-6.718 1.9228,-8.418 6.7661,-3.967 9.9171,-6.605 0,0 5.154,-3.279 7.767,-0.465 8.805,2.167 2.576,0.301 9.977,-1.178 6.32,-2.802 3.068,2.501 9.498,-0.375 5.212,-2.332 6.367,-1.008 9.831,2.413 -1.056,0.101 -3.606,-1.33 -2.631,4.911 z"
             style="fill:#360f0f;fill-opacity:1;fill-rule:evenodd;stroke:none;stroke-width:0.987728;stroke-miterlimit:4;stroke-dasharray:none;stroke-opacity:1"
             inkscape:connector-curvature="0" />
          <path
             id="path10056"
             class="cls-31"
             d="m 126.42,739.65 a 3.26033,3.26033 0 0 1 3.208,2.926 30.3722,30.3722 0 0 1 0,3.849 18.893,18.893 0 0 1 -7.23,0.178 l 0.387,-3.683 v -0.03 a 3.45507,3.45507 0 0 1 3.641,-3.241 z"
             style="fill:#2b1100;fill-opacity:1"
             inkscape:connector-curvature="0" />
          <path
             style="fill:#2b1100;fill-opacity:1"
             d="m 104.265,739.415 a 3.26033,3.26033 0 0 0 -3.305,2.818 30.3722,30.3722 0 0 0 -0.11,3.847 18.893,18.893 0 0 0 7.221,0.421 l -0.264,-3.694 v -0.03 a 3.45507,3.45507 0 0 0 -3.53,-3.361 z"
             class="cls-31"
             id="path10060"
             inkscape:connector-curvature="0" />
          <path
             sodipodi:nodetypes="ccccc"
             id="path10062"
             style="fill:#2b1100;fill-opacity:1;fill-rule:evenodd;stroke:#2b1100;stroke-width:0.5;stroke-miterlimit:4;stroke-dasharray:none;stroke-opacity:1"
             d="m 116.439,742.201 c -0.02,0.635 2.277,11.148 2.277,11.148 0,0 0.444,2.209 2.526,4.167 -1.055,-2.226 -2.66,-5.26 -2.66,-5.26 l -2.143,-10.055"
             inkscape:connector-curvature="0" />
          <path
             sodipodi:nodetypes="ccccc"
             id="path10064"
             style="fill:#2b1100;fill-opacity:1;fill-rule:evenodd;stroke:#2b1100;stroke-opacity:1"
             d="m 113.878,758.26 c 0.364,0.223 1.943,0.406 3.522,0.724 1.414,0.03 1.537,0.273 3.019,-1.362 -0.423,-0.02 -2.417,0.125 -2.417,0.125 1.692,-0.05 -4.715,0.148 -4.124,0.513"
             inkscape:connector-curvature="0" />
          <path
             sodipodi:nodetypes="cccccccc"
             id="path10066"
             style="fill:#502d16;fill-opacity:1;fill-rule:nonzero;stroke:#2b1100;stroke-width:0.378863;stroke-miterlimit:4;stroke-dasharray:none;stroke-opacity:1"
             d="m 116.009,765.518 c -0.528,-0.02 -1.036,-0.06 -1.518,-0.123 -3.291,-0.656 -4.268,-1.586 -4.318,-1.614 -0.338,0.08 0,-0.525 0.158,-0.286 0,0 1.073,0.962 4.203,1.577 3.746,0.501 4.496,0.728 8.235,-0.675 0.186,-0.371 0.573,0.373 0.146,0.292 -3.519,1.293 -3.264,0.95 -6.906,0.829"
             inkscape:connector-curvature="0" />
          <path
             id="path10068"
             style="fill:#c4c0c2;fill-opacity:1;fill-rule:evenodd;stroke:none"
             d="M 118.779,867.523 Z"
             inkscape:connector-curvature="0" />
          <path
             sodipodi:nodetypes="ccccccccccccccccc"
             d="m 87.0392,792.208 c -3.2003,5.731 6.4341,9.829 4.8036,15.741 3.1697,8.878 8.3422,16.339 9.0452,21.293 2.242,12.813 3.149,20.097 3.149,20.097 -21.3396,22.622 -7.0154,74.932 -7.807,105.679 5.487,-4.81 9.375,-5.889 12.737,-5.741 l 3.185,-76.3 -5.056,80.578 c 14.68,-1.801 15.766,9.32 40.641,7.699 -5.678,-44.011 10.856,-77.004 -12.149,-109.935 -1.955,-12.417 0.471,-24.733 1.563,-27.041 2.967,-10.017 5.053,-22.636 5.053,-22.636 0.138,-6.112 3.805,-10.383 3.805,-10.383 -2.392,-3.563 -9.055,-5.442 -15.237,-8.374 -6.222,8.195 -6.169,17.191 -13.687,24.831 -2.415,-4.86 -4.978,-5.72 -15.314,-23.746 -0.89,-0.884 -13.0577,5.448 -14.7318,8.238 z"
             style="fill:#deaa87;fill-opacity:1;fill-rule:evenodd;stroke:none;stroke-width:0.987728;stroke-miterlimit:4;stroke-dasharray:none;stroke-opacity:1"
             id="path10070"
             inkscape:connector-curvature="0" />
          <ellipse
             ry="2.00414"
             rx="1.93733"
             cy="990.902"
             cx="119.113"
             id="path4856"
             style="color:#000000;clip-rule:nonzero;display:inline;overflow:visible;visibility:visible;opacity:1;isolation:auto;mix-blend-mode:normal;color-interpolation:sRGB;color-interpolation-filters:linearRGB;solid-color:#000000;solid-opacity:1;fill:#784421;fill-opacity:1;fill-rule:nonzero;stroke:none;stroke-width:0.5;stroke-linecap:butt;stroke-linejoin:miter;stroke-miterlimit:4;stroke-dasharray:none;stroke-dashoffset:0;stroke-opacity:1;color-rendering:auto;image-rendering:auto;shape-rendering:auto;text-rendering:auto;enable-background:accumulate" />
          <ellipse
             style="color:#000000;clip-rule:nonzero;display:inline;overflow:visible;visibility:visible;opacity:1;isolation:auto;mix-blend-mode:normal;color-interpolation:sRGB;color-interpolation-filters:linearRGB;solid-color:#000000;solid-opacity:1;fill:#784421;fill-opacity:1;fill-rule:nonzero;stroke:none;stroke-width:0.5;stroke-linecap:butt;stroke-linejoin:miter;stroke-miterlimit:4;stroke-dasharray:none;stroke-dashoffset:0;stroke-opacity:1;color-rendering:auto;image-rendering:auto;shape-rendering:auto;text-rendering:auto;enable-background:accumulate"
             id="ellipse4858"
             cx="116.181"
             cy="991.962"
             rx="1.20248"
             ry="1.24395" />
          <ellipse
             ry="1.24395"
             rx="1.20248"
             cy="991.829"
             cx="114.244"
             id="ellipse4860"
             style="color:#000000;clip-rule:nonzero;display:inline;overflow:visible;visibility:visible;opacity:1;isolation:auto;mix-blend-mode:normal;color-interpolation:sRGB;color-interpolation-filters:linearRGB;solid-color:#000000;solid-opacity:1;fill:#784421;fill-opacity:1;fill-rule:nonzero;stroke:none;stroke-width:0.5;stroke-linecap:butt;stroke-linejoin:miter;stroke-miterlimit:4;stroke-dasharray:none;stroke-dashoffset:0;stroke-opacity:1;color-rendering:auto;image-rendering:auto;shape-rendering:auto;text-rendering:auto;enable-background:accumulate" />
          <ellipse
             style="color:#000000;clip-rule:nonzero;display:inline;overflow:visible;visibility:visible;opacity:1;isolation:auto;mix-blend-mode:normal;color-interpolation:sRGB;color-interpolation-filters:linearRGB;solid-color:#000000;solid-opacity:1;fill:#784421;fill-opacity:1;fill-rule:nonzero;stroke:none;stroke-width:0.5;stroke-linecap:butt;stroke-linejoin:miter;stroke-miterlimit:4;stroke-dasharray:none;stroke-dashoffset:0;stroke-opacity:1;color-rendering:auto;image-rendering:auto;shape-rendering:auto;text-rendering:auto;enable-background:accumulate"
             id="ellipse4862"
             cx="112.607"
             cy="991.801"
             rx="1.03547"
             ry="1.07118" />
          <ellipse
             ry="1.07118"
             rx="1.03547"
             cy="991.333"
             cx="111.204"
             id="ellipse4864"
             style="color:#000000;clip-rule:nonzero;display:inline;overflow:visible;visibility:visible;opacity:1;isolation:auto;mix-blend-mode:normal;color-interpolation:sRGB;color-interpolation-filters:linearRGB;solid-color:#000000;solid-opacity:1;fill:#784421;fill-opacity:1;fill-rule:nonzero;stroke:none;stroke-width:0.5;stroke-linecap:butt;stroke-linejoin:miter;stroke-miterlimit:4;stroke-dasharray:none;stroke-dashoffset:0;stroke-opacity:1;color-rendering:auto;image-rendering:auto;shape-rendering:auto;text-rendering:auto;enable-background:accumulate" />
          <path
             sodipodi:nodetypes="csssc"
             inkscape:connector-curvature="0"
             id="ellipse4866"
             d="m 151.004,989.412 c 1.056,0.333 -0.153,1.747 -0.153,1.747 -1.929,1.38 -4.77,0.999 -4.74,-0.368 0.02,-1.107 -0.778,-2.516 0.944,-1.583 1.257,0.682 2.569,0.09 3.949,0.204 z"
             style="color:#000000;clip-rule:nonzero;display:inline;overflow:visible;visibility:visible;opacity:1;isolation:auto;mix-blend-mode:normal;color-interpolation:sRGB;color-interpolation-filters:linearRGB;solid-color:#000000;solid-opacity:1;fill:#784421;fill-opacity:1;fill-rule:nonzero;stroke:none;stroke-width:0.5;stroke-linecap:butt;stroke-linejoin:miter;stroke-miterlimit:4;stroke-dasharray:none;stroke-dashoffset:0;stroke-opacity:1;color-rendering:auto;image-rendering:auto;shape-rendering:auto;text-rendering:auto;enable-background:accumulate" />
          <path
             sodipodi:nodetypes="csccscccsccsccscccsccccccsccsccc"
             id="path4879"
             d="m 104.261,859.278 c 0.876,0.194 1.969,0.578 2.715,1.018 0,0 2.18,0.963 2.659,1.114 1.995,0.629 2.233,-0.786 0.781,-1.307 -0.322,-0.346 -1.407,-0.935 -1.407,-0.935 -0.85,-0.495 -1.297,-0.722 -2.199,-1.249 -0.655,-0.408 -2.035,-1.1 -2.668,-1.543 1.259,0.209 2.512,0.576 3.585,0.762 1.076,0.183 2.375,0.799 3.453,1.073 1.069,0.271 2.422,0.759 2.941,0.911 2.129,0.669 2.836,-0.986 0.535,-1.785 -0.399,-0.377 0,0 -2.177,-1.118 -1.009,-0.519 -1.544,-0.647 -2.558,-1.191 -1.896,-0.618 -1.725,-0.438 -3.803,-0.999 0.737,-0.103 3.557,0.395 4.484,0.463 1.089,0.08 1.199,0.197 2.902,0.86 1.146,0.91 0.727,0.577 2.496,1.463 2.326,0.347 2.834,-1.027 1.01,-2.028 -0.507,-0.404 -0.666,-0.486 -1.474,-1.217 -0.755,-0.683 -2.079,-1.215 -2.977,-1.565 -1.479,-0.589 -2.66,-0.65 -4.473,-1.05 l 0.77,-0.178 c 0.97,0 1.161,-0.01 3.897,0.09 1.122,0.454 3.352,0.906 3.526,1.2 2.369,1.813 5.254,0.745 1.932,-1.709 -0.518,-0.252 -1.438,-1.315 -2.378,-1.501 -1.215,-0.241 -2.668,-0.721 -3.845,-0.899 -2.48,-0.439 -4.671,-0.212 -6.988,-0.652 -1.012,-0.306 -2.452,-0.481 -3.677,1.166 -2.0908,2.812 -3.3178,8.268 -3.3178,8.268 0,0 0.8561,1.149 2.0558,1.515 2.064,0.689 3.515,0.881 4.2,1.024 z"
             style="fill:#784421;fill-opacity:1;fill-rule:evenodd;stroke:none;stroke-width:0.768696;stroke-miterlimit:4;stroke-dasharray:none;stroke-opacity:1"
             inkscape:connector-curvature="0" />
          <path
             sodipodi:nodetypes="cccccssccccccscccccccccccccc"
             inkscape:connector-curvature="0"
             style="opacity:1;fill:#784421;fill-opacity:1;fill-rule:evenodd;stroke:none;stroke-width:0.768696;stroke-miterlimit:4;stroke-dasharray:none;stroke-opacity:1"
             d="m 145.782,791.561 c 1.836,1.643 3.199,2.042 4.586,8.659 1.821,11.171 1.994,29.834 3.357,38.91 3.801,13.969 2.054,38.591 2.054,38.591 0,0 1.57,4.337 1.552,6.555 0.109,0.958 0.326,4.984 0.275,5.827 -0.04,0.619 -0.514,0.814 -0.616,1.398 -0.223,1.282 -0.309,0.771 -0.689,2.064 l -1.125,3.051 c -0.577,1.32 -1.681,2.462 -2.466,3.973 -0.189,0.248 -0.165,0.793 -0.817,0.803 -0.405,1.897 -1.468,0.996 -1.406,1.243 -0.127,1.414 -1.007,1.118 -1.384,0.828 -0.375,-0.403 -0.294,-1.054 0.02,-2.02 0.15,-0.463 1.404,-2.641 1.84,-3.843 0.73,-1.564 0.784,-3.215 1.013,-5.199 0.125,-6.768 -1.028,-5.166 -1.028,-5.166 l 0.357,2.815 c 0.671,2.351 0.872,5.279 -0.646,6.361 -1.485,1.392 -1.844,-4.605 -2.749,-6.85 -1.934,-4.199 -1.732,-4.848 -1.379,-5.514 0.05,-0.04 1.099,-3.077 1.141,-3.1 0.889,-1.735 2.331,-5.658 2.383,-6.223 0,-0.01 0.02,0 0.02,-0.03 -0.16,-14.231 -8.499,-20.463 -5.902,-34.695 -0.521,-9.364 -2.737,-20.013 -3.532,-30.199 0.533,-2.464 1.286,-5.854 1.737,-10.441 0.263,-1.796 1.384,-5.113 3.405,-7.802 z"
             id="path4875" />
          <path
             style="color:#000000;clip-rule:nonzero;display:inline;overflow:visible;visibility:visible;opacity:1;isolation:auto;mix-blend-mode:normal;color-interpolation:sRGB;color-interpolation-filters:linearRGB;solid-color:#000000;solid-opacity:1;fill:#008000;fill-opacity:1;fill-rule:nonzero;stroke:none;stroke-width:0.5;stroke-linecap:butt;stroke-linejoin:miter;stroke-miterlimit:4;stroke-dasharray:none;stroke-dashoffset:0;stroke-opacity:1;color-rendering:auto;image-rendering:auto;shape-rendering:auto;text-rendering:auto;enable-background:accumulate"
             d="m 148.534,876.331 10.251,8.714 c 0.805,0.942 0.03,1.78 -0.933,1.098 l -10.251,-8.714 c -0.676,-0.762 0.1,-1.55 0.933,-1.098 z"
             id="path4888"
             inkscape:connector-curvature="0"
             sodipodi:nodetypes="ccccc" />
          <path
             sodipodi:nodetypes="ccccc"
             inkscape:connector-curvature="0"
             id="path4890"
             d="m 149.465,875.236 10.251,8.713 c 0.805,0.942 0.03,1.781 -0.933,1.098 l -10.251,-8.714 c -0.676,-0.762 0.1,-1.55 0.933,-1.097 z"
             style="color:#000000;clip-rule:nonzero;display:inline;overflow:visible;visibility:visible;opacity:1;isolation:auto;mix-blend-mode:normal;color-interpolation:sRGB;color-interpolation-filters:linearRGB;solid-color:#000000;solid-opacity:1;fill:#800080;fill-opacity:1;fill-rule:nonzero;stroke:none;stroke-width:0.5;stroke-linecap:butt;stroke-linejoin:miter;stroke-miterlimit:4;stroke-dasharray:none;stroke-dashoffset:0;stroke-opacity:1;color-rendering:auto;image-rendering:auto;shape-rendering:auto;text-rendering:auto;enable-background:accumulate" />
          <circle
             r="1.13371"
             cy="750.606"
             cx="135.951"
             id="path4894"
             style="color:#000000;clip-rule:nonzero;display:inline;overflow:visible;visibility:visible;opacity:1;isolation:auto;mix-blend-mode:normal;color-interpolation:sRGB;color-interpolation-filters:linearRGB;solid-color:#000000;solid-opacity:1;fill:#008000;fill-opacity:1;fill-rule:nonzero;stroke:none;stroke-width:0.5;stroke-linecap:butt;stroke-linejoin:miter;stroke-miterlimit:4;stroke-dasharray:none;stroke-dashoffset:0;stroke-opacity:1;color-rendering:auto;image-rendering:auto;shape-rendering:auto;text-rendering:auto;enable-background:accumulate" />
          <path
             inkscape:connector-curvature="0"
             id="rect4898"
             d="m 111.289,975.096 h 5.611 v 1.002 h -5.611 z"
             style="color:#000000;clip-rule:nonzero;display:inline;overflow:visible;visibility:visible;opacity:1;isolation:auto;mix-blend-mode:normal;color-interpolation:sRGB;color-interpolation-filters:linearRGB;solid-color:#000000;solid-opacity:1;fill:#28170b;fill-opacity:1;fill-rule:nonzero;stroke:none;stroke-width:0.5;stroke-linecap:butt;stroke-linejoin:miter;stroke-miterlimit:4;stroke-dasharray:none;stroke-dashoffset:0;stroke-opacity:1;color-rendering:auto;image-rendering:auto;shape-rendering:auto;text-rendering:auto;enable-background:accumulate" />
          <path
             sodipodi:nodetypes="ccccc"
             inkscape:connector-curvature="0"
             style="color:#000000;clip-rule:nonzero;display:inline;overflow:visible;visibility:visible;opacity:1;isolation:auto;mix-blend-mode:normal;color-interpolation:sRGB;color-interpolation-filters:linearRGB;solid-color:#000000;solid-opacity:1;fill:#28170b;fill-opacity:1;fill-rule:nonzero;stroke:none;stroke-width:0.5;stroke-linecap:butt;stroke-linejoin:miter;stroke-miterlimit:4;stroke-dasharray:none;stroke-dashoffset:0;stroke-opacity:1;color-rendering:auto;image-rendering:auto;shape-rendering:auto;text-rendering:auto;enable-background:accumulate"
             d="m 129.435,973.741 h 7.082 l 0.4,1.003 h -7.482 z"
             id="path4901" />
          <path
             sodipodi:nodetypes="ccccc"
             id="path4903"
             d="m 128.937,980.623 7.421,-6.649 0.589,0.811 c -2.619,2.693 -5.737,5.837 -7.571,8.403 -0.724,-1.078 -0.973,-1.738 -0.439,-2.565 z"
             style="color:#000000;clip-rule:nonzero;display:inline;overflow:visible;visibility:visible;opacity:1;isolation:auto;mix-blend-mode:normal;color-interpolation:sRGB;color-interpolation-filters:linearRGB;solid-color:#000000;solid-opacity:1;fill:#28170b;fill-opacity:1;fill-rule:nonzero;stroke:none;stroke-width:0.5;stroke-linecap:butt;stroke-linejoin:miter;stroke-miterlimit:4;stroke-dasharray:none;stroke-dashoffset:0;stroke-opacity:1;color-rendering:auto;image-rendering:auto;shape-rendering:auto;text-rendering:auto;enable-background:accumulate"
             inkscape:connector-curvature="0" />
          <path
             sodipodi:nodetypes="cccc"
             inkscape:connector-curvature="0"
             style="color:#000000;clip-rule:nonzero;display:inline;overflow:visible;visibility:visible;opacity:1;isolation:auto;mix-blend-mode:normal;color-interpolation:sRGB;color-interpolation-filters:linearRGB;solid-color:#000000;solid-opacity:1;fill:#28170b;fill-opacity:1;fill-rule:nonzero;stroke:none;stroke-width:0.5;stroke-linecap:butt;stroke-linejoin:miter;stroke-miterlimit:4;stroke-dasharray:none;stroke-dashoffset:0;stroke-opacity:1;color-rendering:auto;image-rendering:auto;shape-rendering:auto;text-rendering:auto;enable-background:accumulate"
             d="m 140.8,990.176 c 2.13,0.126 5.912,-2.805 6.948,-0.668 -2.257,-0.816 1.108,2.309 -1.236,3.139 -3.383,0.05 -4.13,-1.457 -5.712,-2.471 z"
             id="path4905" />
          <path
             id="path4907"
             d="m 110.954,987.838 c 2.13,0.126 5.178,0.869 6.213,3.006 -2.257,-0.816 -4.336,-2.668 -6.68,-1.837 z"
             style="color:#000000;clip-rule:nonzero;display:inline;overflow:visible;visibility:visible;opacity:1;isolation:auto;mix-blend-mode:normal;color-interpolation:sRGB;color-interpolation-filters:linearRGB;solid-color:#000000;solid-opacity:1;fill:#28170b;fill-opacity:1;fill-rule:nonzero;stroke:none;stroke-width:0.5;stroke-linecap:butt;stroke-linejoin:miter;stroke-miterlimit:4;stroke-dasharray:none;stroke-dashoffset:0;stroke-opacity:1;color-rendering:auto;image-rendering:auto;shape-rendering:auto;text-rendering:auto;enable-background:accumulate"
             inkscape:connector-curvature="0"
             sodipodi:nodetypes="cccc" />
          <path
             sodipodi:nodetypes="cccc"
             inkscape:connector-curvature="0"
             style="color:#000000;clip-rule:nonzero;display:inline;overflow:visible;visibility:visible;opacity:1;isolation:auto;mix-blend-mode:normal;color-interpolation:sRGB;color-interpolation-filters:linearRGB;solid-color:#000000;solid-opacity:1;fill:#28170b;fill-opacity:1;fill-rule:nonzero;stroke:none;stroke-width:0.5;stroke-linecap:butt;stroke-linejoin:miter;stroke-miterlimit:4;stroke-dasharray:none;stroke-dashoffset:0;stroke-opacity:1;color-rendering:auto;image-rendering:auto;shape-rendering:auto;text-rendering:auto;enable-background:accumulate"
             d="m 119.767,987.838 c -2.13,0.126 -2.278,0.535 -2.646,3.006 1.523,-0.916 1.806,-1.332 3.615,-1.136 z"
             id="path4909" />
          <path
             sodipodi:nodetypes="ccccc"
             inkscape:connector-curvature="0"
             id="path4913"
             d="m 111.611,980.107 2.522,-4.681 0.868,0.501 -2.853,5.484 c -0.238,-0.395 -0.482,-0.786 -0.537,-1.304 z"
             style="color:#000000;clip-rule:nonzero;display:inline;overflow:visible;visibility:visible;opacity:1;isolation:auto;mix-blend-mode:normal;color-interpolation:sRGB;color-interpolation-filters:linearRGB;solid-color:#000000;solid-opacity:1;fill:#28170b;fill-opacity:1;fill-rule:nonzero;stroke:none;stroke-width:0.5;stroke-linecap:butt;stroke-linejoin:miter;stroke-miterlimit:4;stroke-dasharray:none;stroke-dashoffset:0;stroke-opacity:1;color-rendering:auto;image-rendering:auto;shape-rendering:auto;text-rendering:auto;enable-background:accumulate" />
          <path
             sodipodi:nodetypes="ccccc"
             style="color:#000000;clip-rule:nonzero;display:inline;overflow:visible;visibility:visible;opacity:1;isolation:auto;mix-blend-mode:normal;color-interpolation:sRGB;color-interpolation-filters:linearRGB;solid-color:#000000;solid-opacity:1;fill:#28170b;fill-opacity:1;fill-rule:nonzero;stroke:none;stroke-width:0.5;stroke-linecap:butt;stroke-linejoin:miter;stroke-miterlimit:4;stroke-dasharray:none;stroke-dashoffset:0;stroke-opacity:1;color-rendering:auto;image-rendering:auto;shape-rendering:auto;text-rendering:auto;enable-background:accumulate"
             d="m 117.891,980.768 -3.065,-5.342 -0.868,0.501 3.844,6.429 c 0.06,-0.546 0.146,-1.102 0.09,-1.588 z"
             id="path4915"
             inkscape:connector-curvature="0" />
        </g>
      </g>
    </g>
  </g>
</svg>
