<?xml version="1.0" encoding="UTF-8" standalone="no"?>
<!-- Created with Inkscape (http://www.inkscape.org/) -->

<svg
   xmlns:dc="http://purl.org/dc/elements/1.1/"
   xmlns:cc="http://creativecommons.org/ns#"
   xmlns:rdf="http://www.w3.org/1999/02/22-rdf-syntax-ns#"
   xmlns:svg="http://www.w3.org/2000/svg"
   xmlns="http://www.w3.org/2000/svg"
   xmlns:sodipodi="http://sodipodi.sourceforge.net/DTD/sodipodi-0.dtd"
   xmlns:inkscape="http://www.inkscape.org/namespaces/inkscape"
   width="810.667"
   height="533.333"
   viewBox="0 0 760 500"
   id="svg5655"
   version="1.1"
   inkscape:version="0.92.1 r15371"
   sodipodi:docname="doc-home.svg">
  <defs
     id="defs5657" />
  <sodipodi:namedview
     id="base"
     pagecolor="#ffffff"
     bordercolor="#666666"
     borderopacity="1.0"
     inkscape:pageopacity="0.0"
     inkscape:pageshadow="2"
     inkscape:zoom="0.962373"
     inkscape:cx="260.525"
     inkscape:cy="228.89"
     inkscape:document-units="px"
     inkscape:current-layer="layer1"
     showgrid="false"
     units="px"
     inkscape:window-width="1920"
     inkscape:window-height="1016"
     inkscape:window-x="0"
     inkscape:window-y="27"
     inkscape:window-maximized="1" />
  <metadata
     id="metadata5660">
    <rdf:RDF>
      <cc:Work
         rdf:about="">
        <dc:format>image/svg+xml</dc:format>
        <dc:type
           rdf:resource="http://purl.org/dc/dcmitype/StillImage" />
        <dc:title></dc:title>
      </cc:Work>
    </rdf:RDF>
  </metadata>
  <g
     inkscape:label="Layer 1"
     inkscape:groupmode="layer"
     id="layer1"
     transform="translate(0,-552.362)">
    <g
       style="display:inline;opacity:1;fill:#ffffff;fill-opacity:1"
       transform="matrix(-1.41194,-0.405178,0.405178,-1.41194,712.842,1920.84)"
       id="g6255">
      <path
         style="fill:#967c99;fill-opacity:0.4"
         d="m 743.977,1019.25 c 0.03,0.11 0.05,0.21 0.08,0.31 l 0.05,-0.19 c -0.04,0 -0.1,-0.1 -0.138,-0.12 z M 94.7695,831.99 c 0.3803,-0.343 0.6204,-0.814 0.6211,-1.439 -0.046,-1.094 0.01,-2.183 0.098,-3.268 -0.031,0.134 -0.069,0.27 -0.094,0.401 -0.2956,1.438 -0.4791,2.872 -0.625,4.306 z m 0.7188,-4.707 c 0.4789,-2.043 1.6068,-4.357 1.0508,-6.439 -0.06,-0.188 -0.095,-0.364 -0.1309,-0.541 -0.3082,2.322 -0.721,4.643 -0.9199,6.98 z m 0.9199,-6.98 c 0.1274,-0.96 0.2409,-1.92 0.2988,-2.881 -0.3248,0.86 -0.5232,1.779 -0.2988,2.881 z m 0.2988,-2.881 c 0.1891,-0.501 0.4129,-0.985 0.6211,-1.473 l -0.5683,-0.162 c 0,0.546 -0.02,1.09 -0.053,1.635 z m 863.68,16.764 c -6.391,-5.183 -11.813,-11.522 -16.362,-18.987 -2.213,-3.707 -2.212,-3.707 0.766,-6.949 0.298,-0.324 0.162,-0.567 -0.217,-0.676 -1.894,0.89 -3.653,2.024 -5.547,2.914 -10.822,4.882 -22.37,7.302 -34.052,8.045 -11.494,0.798 -22.253,-3.108 -32.387,-8.474 -8.486,-4.688 -16.023,-10.538 -20.637,-19.44 -0.944,-1.705 -1.374,-4.489 -2.644,-5.058 -1.649,-0.678 -3.977,0.292 -6.086,0.505 -12.116,0.825 -24.122,1.271 -36.043,-2.15 l -3.785,-1.086 c 1.133,1.759 2.403,2.327 3.728,2.707 3.974,1.14 7.893,2.472 11.949,2.611 1.001,0.08 2.301,-0.16 2.705,0.571 1.323,1.813 2.917,1.248 4.459,0.871 1.299,-0.242 2.463,-0.729 3.707,-0.781 5.435,0.33 10.924,0.472 16.143,0.127 0.485,1.163 -0.299,1.758 -0.705,2.46 -2.628,4.162 -5.579,8.025 -8.207,12.186 -1.165,1.919 -2.845,3.485 -4.793,4.564 -4.14,2.294 -7.956,4.885 -10.719,8.803 -2.167,3.27 -4.708,3.564 -8.223,2.965 -10.922,-1.905 -21.763,-4.81 -31.925,-9.365 -15.757,-7.184 -27.454,-18.527 -34.602,-34.301 -2.535,-5.438 -3.529,-11.255 -4.09,-17.15 -0.08,-1.866 0.517,-2.514 2.463,-2.161 2.082,0.598 4.164,1.196 6.735,0.09 -11.95,-2.61 -21.732,-8.49 -31.297,-15.127 -17.455,-11.972 -28.307,-28.399 -34.26,-48.336 -3.61,-11.686 -3.462,-22.906 1.797,-34.095 5.313,-11.379 12.247,-21.269 22.207,-28.856 12.315,-9.369 26.733,-13.219 41.849,-13.797 8.708,-0.368 17.523,0.318 25.957,2.328 1.704,0.489 3.19,0.303 4.436,-1.183 1.287,-2.687 7.581,-7.438 11.533,-11.219 17.312,-14.698 23.923,-18.27 37.1,-21.931 12.821,-3.285 25.667,-4.515 38.289,0.746 10.217,4.365 19.404,10.894 27.642,18.584 2.135,1.841 2.89,3.491 1.129,6.058 -0.352,0.514 -1.001,1.351 -0.03,2.244 0.244,-0.135 0.487,-0.269 0.785,-0.593 0.407,-0.703 1.002,-1.353 1.408,-2.055 11.297,-17.24 27.613,-26.28 47.788,-28.068 4.031,-0.336 8.036,-0.343 12.023,-0.01 v -1.526 c -20.736,-1.845 -38.665,4.404 -53.802,20.539 -1.192,1.297 -1.311,1.499 -2.502,2.795 -0.244,0.135 -1.505,2.135 -1.803,2.459 -3.134,-1.923 -5.673,-4.494 -8.455,-6.931 -8.402,-7.122 -17.671,-12.651 -28.268,-15.692 -12.245,-3.719 -24.495,-3.137 -36.587,1.176 -11.849,4.178 -15.753,5.324 -25.389,13.209 -4.872,4.132 -15.3,12.611 -19.578,17.527 -1.544,1.81 -3.37,3.524 -5.506,3.116 -11.436,-2.258 -22.873,-3.082 -34.34,-1.662 -24.99,2.864 -43.124,16.094 -54.777,38.146 -2.195,4.081 -4.066,8.46 -5.694,12.703 -0.678,1.649 -0.923,3.216 -1.033,5.027 -0.533,16.847 4.235,32.346 13.305,46.418 10.527,16.129 25.28,27.531 42.334,35.907 2.351,1.084 3.404,2.411 3.59,5.332 1.329,19.633 10.938,34.68 26.799,45.785 9.375,6.582 19.538,11.137 30.73,13.529 6.353,1.414 12.598,3.206 19.088,3.43 0.53,9.573 2.6,18.77 3.428,28.019 0.133,1.677 0.456,3.408 0.589,5.084 0.16,2.299 0.131,4.544 -1.71,6.678 -2.14,2.458 -1.79,4.81 0.126,7.408 0.784,0.84 1.511,1.868 2.403,2.328 4.324,2.061 6.484,5.958 8.832,9.909 1.619,2.922 3.428,5.898 5.047,8.82 0.149,0.27 0.254,0.707 0.488,0.926 -0.04,0.339 0.288,0.481 0.943,0.402 -0.507,0.703 -0.334,1.138 0.436,1.149 -0.453,0.782 -0.137,1.027 0.734,0.96 -0.589,0.745 -0.214,1.048 0.582,1.03 -0.323,0.684 -0.362,1.116 0.561,1.004 -0.394,0.802 -0.296,1.201 0.637,1.131 -0.414,0.637 -0.196,1.009 0.527,1.023 -0.44,0.787 0.05,0.945 0.76,0.977 -0.458,0.775 -0.05,0.964 0.591,1.013 -0.155,0.575 -0.194,1 0.499,1.004 -0.777,0.932 0.419,1.497 0.392,2.289 1.239,-0.841 0.302,-1.532 -0.297,-2.293 0.05,0 0.09,0 0.137,0 l -0.539,-0.974 -0.135,-0.245 -0.539,-0.972 c -0.03,0.04 -0.04,0.07 -0.06,0.105 -0.03,-0.487 -0.159,-0.74 -0.516,-1.017 0.09,-0.511 -0.166,-0.942 -0.69,-1.092 -0.01,0.02 -0.02,0.04 -0.04,0.06 0.08,-0.458 -0.132,-0.842 -0.56,-1.023 0.02,0 0.04,0 0.06,0 0.145,-0.504 -0.07,-0.932 -0.509,-1.139 0.1,-0.483 -0.03,-0.858 -0.706,-1.052 -0.01,0.01 -0.01,0.02 -0.02,0.03 0.127,-0.558 0,-0.807 -0.535,-0.994 0.119,-0.549 -0.02,-0.795 -0.557,-0.981 0.01,0 0.02,-10e-4 0.04,0 0.178,-0.619 0.1,-0.891 -0.341,-1.09 -0.285,-1.569 -1.361,-2.811 -2.248,-4.158 -2.159,-3.896 -4.561,-7.66 -6.233,-11.826 1.651,-0.755 3.463,-0.645 4.655,-1.941 -0.999,-1.516 -2.002,-0.163 -2.868,0 -4.084,0.671 -7.382,-0.686 -10.136,-3.934 -1.053,-1.326 -1.673,-2.732 -1.239,-4.246 1.006,-4.217 7.146,-6.347 10.631,-3.504 1.81,1.544 3.567,3.277 5.133,4.955 2.485,2.761 2.485,2.761 -0.654,5.137 -0.149,0.08 -0.23,0.183 -0.282,0.287 -0.241,-0.157 -0.374,-0.401 -0.773,-0.18 -0.487,0.27 -0.163,0.567 -0.271,0.946 0.435,-0.02 0.864,-0.04 1.078,-0.264 0.04,0.07 0.1,0.147 0.166,0.211 1.298,-0.242 2.352,-0.348 3.162,1.113 0.89,1.894 1.888,3.409 3.076,4.979 1.512,1.867 2.294,4.14 4.537,5.603 -1.132,-3.192 -2.995,-5.98 -4.668,-8.713 -0.864,-1.272 -2.35,-2.517 -1.916,-4.031 0.706,-2.46 -0.672,-4.085 -2.049,-5.709 -1.512,-1.868 -3.268,-3.601 -4.888,-5.09 -1.297,-1.191 -1.836,-2.165 -1.914,-4.031 -0.288,-8.275 -0.766,-16.604 -1.243,-24.934 -0.27,-0.487 -0.106,-1.054 0.192,-1.378 0.05,-0.19 0.512,0.352 0.89,0.46 9.101,10.395 18.203,20.789 27.358,30.995 2.025,2.219 3.863,4.385 2.074,7.763 -0.163,0.568 -0.137,1.191 -0.06,1.623 -0.712,8.193 -1.371,16.196 -2.084,24.389 -0.08,1 -0.164,2 -1.462,2.242 -1.353,0.431 -1.594,-0.867 -2.188,-1.652 l -5.994,-9.092 -0.731,0.404 c 3.128,5.361 6.124,10.484 9.248,15.84 0,3.117 -1.35,4.896 -4.052,5.313 -2.786,0.429 -5.245,-0.277 -6.377,-3.469 -0.216,-0.676 -0.811,-1.46 -1.92,-1.164 1.296,1.191 0.349,2.353 0.02,3.488 -1.412,4.92 -3.147,9.542 -3.424,14.787 -0.164,2.001 -0.519,3.948 0.127,5.977 0.863,2.705 -0.328,4.001 -2.384,5.459 l -66.905,49.004 -13.234,9.718 c -1.326,1.054 -2.732,1.673 -4.598,1.752 -3.488,0.02 -6.681,1.156 -9.334,3.262 -1.38,1.242 -2.272,0.782 -3.623,-0.221 -9.349,-5.96 -17.887,-13.325 -26.64,-19.933 -14.536,-10.725 -28.829,-21.585 -43.121,-32.445 -3.54,-2.655 -6.835,-5.444 -9.291,-9.016 -3.78,-5.386 -8.155,-10.122 -13.125,-14.211 -2.837,-2.248 -6.027,-3.982 -9.514,-5.393 -3.298,-1.356 -5.082,-0.845 -7.465,1.748 -1.191,1.297 -2.438,2.784 -3.629,4.08 -1.514,-0.434 -1.565,-1.677 -1.916,-2.597 -1.861,-4.221 -3.721,-8.442 -5.771,-12.717 -0.351,-0.92 -0.648,-2.029 -1.649,-2.111 2.913,6.98 5.961,14.203 8.873,21.183 0.27,0.487 0.295,1.11 1.026,0.705 0.271,-0.946 -0.511,-1.787 0.572,-2.705 1.813,-1.323 3.032,-3.429 5.305,-4.211 0.317,6.031 3.393,11.009 6.281,15.934 2.618,4.438 6.428,7.58 11.457,8.613 3.271,0.734 6.324,2.224 9.324,3.905 3.648,2.275 7.242,4.74 10.781,7.394 13.834,10.319 27.613,20.828 41.635,31.201 9.591,7.258 19.237,14.325 28.639,21.525 0.648,0.6 1.972,0.98 0.781,2.27 -0.596,0.65 -1.38,1.25 -2.596,0.49 -1.54,-1.06 -3.135,-1.92 -4.676,-2.98 -21.94,-14.897 -43.934,-29.606 -65.929,-44.315 -5.512,-3.629 -10.672,-7.773 -17.24,-9.863 -2.082,-0.597 -4.352,-1.248 -6.379,-2.035 -6.136,-2.17 -11.325,-5.503 -13.237,-12.4 -0.646,-2.029 -0.996,-4.383 -2.562,-6.061 -1.246,1.486 0.05,2.679 0.537,3.842 2.641,7.926 4.983,16.176 6.461,24.588 0.403,2.164 0.562,4.462 0.344,6.652 -0.548,6.192 -3.498,8.623 -9.745,8.264 -4.245,-0.194 -8.408,-1.389 -12.328,-2.719 -10.893,-4.15 -21.271,-9.381 -31.486,-15.18 -19.079,-10.595 -37.155,-22.542 -55.367,-34.732 -10.133,-6.799 -19.536,-14.002 -28.666,-22.152 -21.612,-18.9 -41.354,-39.311 -58.715,-62.317 -15.903,-20.948 -31.618,-41.844 -46.791,-63.197 -14.039,-19.594 -25.533,-40.916 -34.701,-63.209 -4.584,-11.146 -8.303,-22.454 -10.182,-34.463 -0.671,-4.084 -0.721,-8.195 -0.01,-12.088 0.789,-3.46 1.872,-4.378 5.28,-4.834 4.327,-0.806 8.597,0.01 12.869,0.826 7.921,1.659 15.734,3.696 23.086,6.625 8.109,3.147 15.703,7.374 23.107,11.547 19.458,10.704 37.75,23.327 55.149,36.922 17.588,13.649 33.877,28.972 48.84,45.35 9.209,10.016 18.365,20.222 27.033,30.697 17.147,20.896 32.914,43.034 46.732,66.252 8.853,14.829 17.948,29.522 25.826,44.891 0.191,-1.379 -0.538,-2.407 -1.023,-3.571 -13.596,-28.274 -30.413,-54.605 -48.258,-80.207 -8.153,-11.556 -16.36,-22.922 -25.596,-33.56 -8.911,-10.34 -18.31,-20.41 -27.763,-30.291 -16.017,-16.27 -32.739,-31.516 -50.949,-45.139 -14.292,-10.86 -28.801,-20.962 -44.502,-29.769 -12.89,-7.181 -26.188,-13.658 -40.271,-18.109 -8.083,-2.525 -16.356,-3.67 -24.956,-3.68 -2.055,0.02 -3.651,0.59 -5.14,2.211 -9.937,11.075 -20.063,22.096 -30,33.172 -1.787,1.945 -2.438,4.215 -2.197,6.947 0.32,3.164 1.019,6.438 1.773,9.521 0.834,3.517 0.59,3.651 -3.006,2.62 -5.92,-1.495 -11.678,-3.557 -16.974,-6.51 -37.158,-21.108 -74.37,-42.028 -110.661,-64.731 -7.296,-4.551 -14.59,-9.103 -21.236,-14.492 -1.351,-1.002 -2.162,-1.028 -3.164,0.322 -1.706,2.378 -4.575,3.808 -5.633,6.782 -0.217,0.757 -1.084,0.917 -1.678,0.132 l -1.214,-2.191 c -2.483,-4.194 -5.264,-8.065 -8.586,-11.476 -6.564,-6.39 -15.217,-6.21 -21.526,0.787 -4.522,5.051 -6.448,11.051 -6.916,17.675 -0.829,15.738 -2.604,31.204 -4.867,46.94 -3.107,20.818 -5.781,41.557 -8.644,62.24 -1.5,10.22 -3.052,20.628 -4.551,30.848 -0.9826,7.705 -1.8306,15.655 -3.0022,23.306 -0.2995,1.758 -0.4106,3.57 -1.332,5.354 0.1892,0.05 0.5134,0.352 0.6484,0.596 0.436,-2.947 0.8723,-5.895 1.4433,-8.598 0.9265,-6.083 2.0425,-12.112 2.9685,-18.195 1.825,-11.356 3.46,-22.767 5.096,-34.176 1.799,-11.977 3.598,-23.955 5.207,-35.986 1.8,-13.411 3.358,-26.686 5.158,-40.096 1.256,-10.085 2.754,-20.305 3.442,-30.553 0.194,-4.245 1.2,-8.462 2.908,-12.273 1.925,-4.568 5.147,-7.945 9.801,-9.887 3.977,-1.726 9.247,-0.828 11.732,1.934 6.562,7.822 12.638,15.915 15.791,25.626 0.459,0.542 0.728,1.029 0.754,1.651 l 0.324,0.297 c 0.405,0.73 1.055,1.327 0.594,2.219 -0.648,-0.596 -1.352,-1.002 -1.811,-1.543 -4.322,-3.494 -9.052,-6.284 -14.459,-7.426 -8.299,-1.768 -15.55,2.091 -18.507,10.254 -0.95,2.595 -1.467,5.109 -2.038,7.812 -2.697,17.25 -5.259,34.743 -7.957,51.992 l -5.148,32.93 c -2.098,13.735 -4.195,27.469 -6.348,41.393 -1.744,11.788 -3.732,23.712 -5.476,35.5 -1.0896,6.651 -1.9912,13.356 -3.2697,19.953 -0.082,1 0.4301,2.786 -1.625,2.81 -0.4081,2.136 0.6196,2.84 2.7011,3.438 3.8936,0.707 7.8146,0.603 11.7616,1.121 3.001,0.247 3,0.247 3.545,-3.078 0.599,-3.515 0.82,-7.138 1.906,-10.922 0.568,0.163 1,0.08 1.325,0.379 7.889,5.336 13.911,12.185 18.986,20.195 0.594,0.785 0.945,1.705 0.619,2.84 -0.815,2.838 -1.439,5.732 -2.254,8.57 -0.38,1.325 -1.03,2.162 -2.652,2.106 -7.734,-0.171 -12.635,4.772 -17.401,9.959 -1.191,1.296 -1.68,2.998 -1.736,4.621 -0.22,3.623 -0.09,3.867 -3.871,4.215 -9.3578,1.206 -18.4694,-0.59 -27.7696,-2.44 1.843,-3.567 1.8742,-7.245 3.1758,-10.353 0.6779,-1.649 0.5457,-3.325 -0.4531,-4.84 -0.054,0.189 -0.5412,0.459 -0.4063,0.703 0.747,8.816 -3.292,16.463 -10.2441,18.564 -1.1091,0.297 -2.8394,0.619 -3.0039,2.62 2.6508,-0.673 5.0857,-2.021 7.1426,-3.479 3.6266,-2.646 7.033,-1.67 10.7089,-0.205 -1.7639,5.433 -4.4997,9.974 -6.5878,15.109 1.5961,-0.566 1.7326,-1.756 2.1933,-2.648 l 4.7969,-10.297 c 0.7322,-1.838 2.0862,-2.27 3.9785,-1.727 5.3527,1.332 10.9488,1.096 16.4118,0.616 1.244,-0.05 2.489,-0.106 3.787,-0.348 0.866,-0.161 1.731,-0.322 2.325,0.463 1.997,3.031 5.161,4.142 8.214,5.633 5.027,2.466 8.808,6.42 12.887,10.049 12.751,11.237 25.448,22.661 37.901,34.222 1.161,0.948 2.513,1.95 2.646,3.627 0.239,4.165 2.127,7.576 4.746,10.58 0.918,1.083 1.269,2.002 0.834,3.516 -2.172,7.569 -2.344,15.302 -2.137,23.144 0.05,1.244 0.43,2.787 -0.382,4.192 -0.514,-0.352 -0.891,-0.462 -1.27,-0.571 -17.725,-12.459 -35.802,-24.405 -53.879,-36.351 -7.566,-5.039 -15.077,-10.266 -22.887,-15.17 -5.3769,-3.386 -10.9456,-5.394 -17.7085,-3.238 -3.8142,1.158 -7.9525,2.019 -12.1172,2.258 0.6516,-2.271 -0.048,-4.111 -0.3164,-6.032 -0.107,-1.054 -0.079,-1.866 0.6797,-3.082 2.9256,-4.485 5.5256,-9.267 8.3164,-13.996 0.4064,-0.702 0.6783,-1.65 -0.1856,-2.922 -2.9273,5.919 -5.6908,11.271 -8.3203,16.866 -0.4064,0.702 -0.7598,1.215 -1.3554,1.863 -3.1413,3.809 -8.5215,3.288 -12.8457,1.228 -4.3243,-2.06 -4.8085,-3.222 -3.2618,-7.898 -1.8939,0.89 -1.7886,3.378 -3.6562,4.891 -5.7115,4.914 -6.0676,8.293 -3.3164,14.408 -9.2245,2.882 -18.693,5.899 -28.5938,8.998 2.2231,-4.892 3.2297,-9.108 3.4239,-13.354 0.1645,-2.001 0.8407,-3.649 2.1406,-5.324 3.9541,-5.214 8.6922,-9.591 13.5644,-13.723 1.6241,-1.377 3.5186,-2.267 4.6836,-4.185 -0.4047,-0.731 -0.8918,-0.461 -1.3789,-0.192 -6.3334,4.942 -12.6665,9.884 -17.5683,16.26 -0.65,0.838 -1.0848,2.352 -2.5723,2.539 -3.3765,-3.222 -6.4565,-6.768 -11.45703,-8.613 1.24563,-1.486 2.19503,-2.647 3.33203,-3.754 4.4132,-4.673 9.0146,-9.292 13.4277,-13.965 12.5353,-12.992 25.0175,-25.796 37.5528,-38.789 2.274,-2.215 4.4919,-2.806 7.5195,-1.937 3.2169,0.923 5.6747,3.061 8.5937,4.308 -2.5109,-3.383 -6.2962,-4.468 -10.1894,-5.176 -1.9466,-0.353 -4.1356,-0.572 -4.4844,-2.925 -0.4294,-2.786 -1.4273,-5.735 1.1445,-8.274 3.9525,-3.781 7.581,-7.861 11.7227,-11.588 4.196,-3.916 9.5512,-5.45 15.3926,-5.822 -0.2189,2.19 -0.5185,3.948 -0.7637,5.516 -0.2452,1.568 0,2.866 0.9707,3.759 0.6027,-3.628 0.6771,-7.203 1.041,-10.781 -0.4917,0.444 -1.2231,0.667 -2.0312,0.666 -1.6767,0.134 -3.353,0.268 -5.084,0.59 -5.6801,1.237 -10.3612,3.99 -14.1523,8.637 -2.3021,3.026 -4.7936,5.997 -7.2305,8.779 -1.7327,1.756 -2.7898,3.296 -2.0625,5.758 1.3196,4.68 -0.8739,7.327 -4.0957,10.703 -13.8895,14.857 -29.1283,28.711 -43.2071,43.514 -3.4653,3.511 -7.25652,6.726 -9.04683,11.537 -0.15891,0.554 -0.53664,0.848 -0.98828,1.047 2.32924,-0.574 4.56981,0.267 6.96291,1.691 5.6472,3.874 6.887,6.688 5.6347,13.906 -0.2748,3.813 -2.6316,7.026 -6.3652,8.618 -3.97709,1.726 -8.16778,1.343 -11.84373,-0.122 -2.78412,-1.003 -4.94482,-3.467 -7.51172,-5.228 -0.70261,-0.407 -0.80946,-1.461 -0.97071,-2.326 -0.4541,-4.841 2.12233,-10.245 6.505863,-12.674 1.704707,-0.945 3.490157,-1.457 4.816407,-2.51 0.58752,-0.436 1.16293,-0.764 1.73242,-1.008 -0.15639,0.05 -0.3158,0.09 -0.46094,0.145 -3.24651,1.321 -6.304525,2.696 -8.95703,4.803 -3.73522,3.024 -5.82621,11.025 -4.01953,15.435 0.35048,0.92 0.70008,1.84 0.86133,2.705 0.7766,6.572 0.77721,6.572 -5.41796,8.891 -5.2754,1.968 -10.605,4.125 -15.9609,5.66 -3.625,1.213 -5.2778,3.402 -5.6875,6.971 -0.9561,8.327 -1.9658,16.844 -2.9219,25.172 -1.5304,13.897 -3.1142,27.977 -4.6446,41.877 -1.8035,16.28 -3.6632,32.75 -5.4668,49.02 -0.52,5.38 1.6652,9.9 5.0137,13.93 3.9968,4.63 8.5892,8.61 13.1817,12.59 20.66517,18.63 41.5203,37.31 62.1855,55.94 4.214,3.87 9.1881,5.1 14.8945,4.48 3.597,-0.4 6.9797,-1.48 10.1719,-2.61 23.6717,-8.98 47.3435,-17.95 70.7715,-26.8 13.067,-4.85 25.998,-9.95 38.93,-15.04 3.003,-1.19 5.412,-3.16 6.957,-6.4 2.818,-5.54 4.313,-11.46 5.185,-17.36 3.326,-23.01 6.084,-46.18 8.787,-69.16 1.392,-11.27 2.028,-22.77 4.42,-33.956 0.191,-1.379 0.435,-2.946 0,-4.299 -0.943,-3.137 -0.262,-6.219 0.174,-9.166 1.501,-11.653 2.946,-23.116 4.258,-34.824 0.819,-7.138 -2.906,-12.713 -7.606,-17.748 -1.566,-1.678 -3.429,-3.034 -5.347,-4.199 -3.324,-1.978 -6.107,-4.415 -8.537,-7.365 -9.047,-10.584 -18.257,-20.6 -26.817,-31.453 -1.782,-2.355 -3.321,-4.845 -4.318,-7.793 -1.563,-4.545 -4.641,-8.091 -8.559,-10.854 -1.729,-1.111 -2.026,-2.219 -1.375,-4.49 3.311,-10.11 3.123,-10.163 -3.519,-18.418 -4.078,-5.062 -8.696,-9.665 -13.965,-13.43 -1.54,-1.056 -2.27,-2.084 -1.916,-4.031 3.052,-20.629 5.916,-41.312 8.969,-61.941 2.345,-16.736 4.501,-33.528 7.035,-50.209 1.581,-11.221 3.352,-22.386 4.555,-33.715 0.164,-2.001 1.137,-2.54 2.812,-1.24 2.567,1.76 5.242,3.142 8.324,3.822 6.543,1.468 14.525,-2.795 16.426,-9.418 0.217,-0.757 0.435,-1.514 0.842,-2.217 3.278,-4.999 3.554,-10.245 2.506,-15.871 -0.107,-1.055 -1.161,-2.382 0.246,-3.002 1.352,-0.431 1.431,1.436 2.025,2.221 2.671,5.682 5.288,11.552 7.715,17.369 1.106,2.57 2.618,4.437 5.158,5.576 22.783,11.249 45.348,23.255 67.264,36.098 16.484,9.646 32.86,19.669 47.935,31.369 3.486,2.843 6.728,5.823 9.618,9.314 5.319,6.442 11.288,12.046 18.693,16.219 2.297,1.274 4.701,2.169 6.918,3.01 3.73,1.275 7.543,1.549 10.279,-2.99 2.995,5.979 5.586,11.23 8.311,16.722 7.689,15.315 17.623,29.224 27.558,43.135 18.413,25.765 39.532,49.234 62.032,71.461 11.128,11.181 22.554,22.039 34.576,32.248 19.261,16.382 39.472,31.602 61.685,44.121 17.107,9.62 34.781,17.964 54.219,22.314 l 1.137,0.33 c 4.352,1.25 7.624,0.55 11.035,-2.78 9.962,-9.013 20.437,-17.681 30.723,-26.403 2.652,-2.106 3.845,-4.837 4.146,-8.027 0.492,-4.57 0.308,-8.924 -0.877,-13.36 -0.512,-1.785 -1.267,-3.436 -0.859,-5.572 4.27,2.249 8.92,3.175 13.515,4.289 3.272,0.734 6.164,2.793 8.92,4.607 21.103,14.249 42.151,28.686 63.254,42.936 4.999,3.27 9.808,6.5 14.807,9.77 2.053,1.41 3.973,2.58 4.646,5.23 0.152,0.81 1.05,1.47 1.698,2.04 -1.929,-6.4 3.518,-10.59 9.316,-9.74 1.19,0.14 2.191,0.22 3.381,0.36 1.379,0.19 2.108,-0.21 2.812,-1.24 -3.676,-1.47 -7.407,-1.31 -11.193,-0.96 -1.055,0.11 -1.732,0.32 -2.406,-0.89 -2.671,-5.69 -1.314,-8.981 4.853,-10.488 0.866,-0.161 1.974,-0.459 2.975,-0.377 2.379,0.273 3.896,-0.724 5.709,-2.047 25.441,-18.71 51.016,-37.177 76.592,-55.644 2.057,-1.458 3.87,-4.215 6.195,-3.752 2.325,0.462 4.648,2.358 6.539,4.334 -0.569,1.27 -1.976,1.89 -3.058,2.808 -11.287,8.641 -22.574,17.281 -33.725,26.164 -0.785,0.594 -2.271,0.783 -1.705,2.379 0.946,0.272 1.595,-0.566 2.137,-1.025 11.719,-8.721 23.384,-17.253 34.779,-26.272 2.896,-2.241 5.248,-2.589 8.383,-0.666 -1.327,1.053 -2.463,2.16 -3.735,3.024 -28.419,21.952 -56.704,44.147 -85.123,66.092 -1.028,0.73 -2.245,1.41 -2.625,2.73 -1.166,3.35 -3.549,5.95 -5.931,8.54 3.218,-0.51 4.789,-3.13 6.117,-5.62 1.788,-3.38 4.494,-5.67 7.39,-7.91 28.609,-21.895 57.217,-43.792 85.879,-65.879 1.327,-1.053 2.734,-1.675 4.655,-1.943 8.492,-1.045 15.744,-4.903 21.322,-11.495 0.893,-0.972 1.434,-1.431 2.732,-1.673 5.87,-1.183 11.335,-3.096 17.043,-5.145 4.545,-1.563 9.278,-3.073 14.012,-4.582 2.462,-0.727 5.113,-1.399 7.871,-1.017 2.379,0.273 4.733,-0.08 6.844,-1.723 -0.135,-0.244 -0.459,-0.542 -0.594,-0.785 -1.109,0.296 -2.03,0.647 -3.139,0.943 -5.815,0.994 -8.678,-1.876 -7.238,-7.607 l 0.326,-1.135 c 1.058,-2.973 3.791,-4.647 6.873,-3.967 1.001,0.08 1.864,1.354 2.893,0.625 -0.566,-1.596 0.517,-2.515 1.6,-3.434 2.328,-2.404 5.331,-3.588 7.929,-5.505 -0.06,-0.05 -0.112,-0.08 -0.168,-0.118 0.785,-0.02 1.751,-0.231 2.223,0.09 2.025,2.22 4.701,3.602 7.377,4.985 -2.572,2.539 -9.987,6.964 -14.776,8.662 -1.27,-0.57 -0.97,-2.326 -2.484,-2.76 -0.974,0.54 -0.326,1.134 -0.06,1.621 1.539,2.49 1.32,4.68 -0.71,6.76 0.837,0.65 0.972,0.893 1.107,1.137 1.381,-1.243 2.896,-2.241 3.439,-4.133 0.381,-1.325 1.489,-1.621 2.463,-2.16 3.653,-2.024 7.576,-3.56 10.825,-6.315 1.082,-0.918 2.163,-0.404 3.164,-0.322 3.87,0.669 5.845,1.175 7.283,0.906 M 165.822,630.795 c 0.864,1.272 1.729,2.544 2.647,3.627 0.459,0.541 1.188,1.568 1.431,1.433 2.516,-0.916 3.974,1.142 5.704,2.252 10.295,6.232 20.78,12.517 31.076,18.748 28.32,16.934 57.099,32.976 85.527,49.532 8.053,4.768 16.621,8.457 25.623,10.631 4.217,1.005 8.381,2.2 12.787,3.259 5.542,1.386 10.272,4.176 14.432,8.237 7.023,6.93 11.854,15.075 15.711,23.759 0.701,1.84 1.157,3.817 1.426,5.737 0.751,4.517 -0.25,5.867 -4.983,5.943 -4.299,0 -8.22,-1.336 -12.111,-3.476 -9.108,-4.662 -16.211,-12.025 -24.317,-18.038 -5.727,-4.306 -10.506,-9.773 -16.83,-13.431 -6.323,-3.658 -12.702,-7.127 -19.025,-10.785 -28.835,-15.853 -57.615,-31.896 -86.504,-47.559 -4.973,-2.656 -9.161,-5.905 -11.859,-10.775 -1.754,-3.166 -3.995,-6.064 -6.182,-9.149 -0.459,-0.541 -0.513,-1.784 -1.73,-1.109 0.133,1.677 1.241,2.814 2.105,4.086 2.672,4.248 5.398,8.307 7.881,12.502 0.729,1.028 1.459,2.057 0.457,3.408 -2.681,2.917 -5.118,5.7 -7.744,8.428 -1.325,-0.38 -1.431,-1.436 -1.836,-2.166 -5.611,-11.851 -11.088,-23.458 -16.51,-35.254 -2.536,-5.439 -2.535,-5.439 2.094,-9.436 -0.135,-0.243 0.298,-0.323 0.73,-0.404 z m -22.98,14.619 c 1.012,0.02 2.054,0.138 3.115,0.365 5.596,1.197 10.757,3.908 14.43,8.239 3.537,4.087 5.857,8.849 5.607,14.716 -0.25,5.868 -3.688,10.001 -7.451,13.836 -3.222,3.377 -7.117,4.103 -11.713,2.989 -3.595,-1.032 -6.595,-2.711 -10.135,-5.366 -0.818,5.705 -1.606,10.599 -2.396,15.493 -1.771,11.166 -3.786,22.467 -5.367,33.687 -2.862,19.25 -5.777,38.689 -8.639,57.94 -1.662,10.787 -3.08,21.44 -4.742,32.228 -1.363,9.03 -2.915,18.005 -4.088,27.09 -0.354,1.946 -1.085,2.351 -2.707,2.295 -3.434,-0.166 -6.734,-0.09 -10.1681,-0.254 0.1103,-1.812 -0.023,-3.489 0.2226,-5.057 1.1174,-7.462 2.2895,-15.113 3.5955,-22.521 3.105,-19.385 6.264,-38.961 9.369,-58.346 2.752,-17.439 5.558,-35.065 8.309,-52.504 1.308,-8.841 2.671,-17.871 4.168,-26.658 1.443,-8.598 2.698,-17.25 4.33,-25.793 1.476,-7.641 7.172,-12.503 14.26,-12.379 z m 19.178,0.06 c 1.999,1.597 3.268,3.599 3.156,6.843 -2.215,-2.274 -2.808,-4.49 -3.156,-6.843 z m 185.099,23.009 c 0.232,9.898 2.439,19.338 5.078,28.698 1.751,6.032 3.88,12.171 6.307,17.988 5.825,13.96 11.649,27.921 19.855,40.721 8.206,12.8 16.763,25.088 25.565,37.24 15.146,20.731 30.889,40.814 46.765,61.141 12.124,15.562 25.737,29.505 40.487,42.339 11.778,10.344 24.016,19.795 36.742,28.977 14.59,10.536 29.533,20.559 45.234,29.365 13.918,7.885 28.051,15.013 43.053,20.547 4.054,1.573 8.517,2.444 13.274,4.424 -9.799,8.453 -19.113,16.635 -28.614,24.767 -0.839,0.78 -1.758,1.13 -3.136,0.94 -1.514,-0.44 -3.137,-0.49 -4.516,-0.68 -11.517,-2.69 -22.463,-6.653 -33.139,-11.56 -26.567,-12.335 -62.398,-35.929 -84.601,-57.047 -8.05,-7.635 -16.884,-14.676 -24.879,-22.5 -17.801,-17.192 -34.166,-35.816 -49.936,-55.088 -13.339,-16.322 -26.436,-32.777 -37.719,-50.557 -6.613,-10.499 -12.496,-21.404 -17.783,-32.957 4.71,-3.564 9.42,-7.129 14.723,-9.908 2.868,-1.43 3.844,-3.402 3.469,-6.377 -0.241,-2.731 -0.969,-5.193 -1.885,-7.709 -3.396,-9.577 -8.903,-17.507 -15.871,-24.627 -4.295,-4.304 -9.403,-7.203 -15.432,-8.318 -1.946,-0.354 -3.838,-0.899 -5.73,-1.442 -1.136,-0.325 -2.028,-0.785 -2.27,-2.084 -0.888,-3.327 -2.021,-6.52 -2.721,-9.793 -0.645,-3.462 -0.02,-6.354 2.663,-9.271 7.689,-8.239 15.054,-16.776 22.419,-25.313 0.65,-0.837 1.165,-1.917 2.598,-1.916 z m -155.027,1.108 c 0.7,-0.03 1.43,0.283 2.322,0.744 3.702,2.086 7.458,3.984 11.16,6.07 28.97,16.096 57.806,31.949 86.776,48.045 6.188,3.415 12.864,6.559 18.24,11.379 8.104,7.446 16.857,14.054 25.556,20.852 5.35,4.197 11.186,8.124 19.459,9.269 -5.007,3.888 -9.418,7.128 -13.451,10.477 -2.409,1.971 -4.708,2.131 -7.302,1.181 -9.245,-3.472 -17.488,-8.294 -23.563,-16.386 -4.887,-6.523 -10.965,-11.749 -17.639,-16.327 -14.32,-10.048 -29.127,-19.829 -44.504,-28.337 -19.97,-11.056 -40.483,-21.653 -60.751,-32.385 -2.298,-1.274 -4.704,-2.169 -6.838,-4.01 2.978,-3.241 5.849,-6.105 8.394,-9.266 0.772,-0.905 1.441,-1.277 2.141,-1.306 z M 849.678,791.4 c 1.081,0.515 1.378,1.626 1.972,2.411 3.132,4.79 6.559,9.254 11.125,12.613 7.647,5.471 16.052,9.726 25.27,12.576 5.298,1.52 11.192,2.393 17.492,2.563 -0.515,1.081 -0.677,1.648 -1.029,2.162 -9.185,15.592 -18.37,31.185 -27.61,46.966 -1.977,3.324 -3.655,3.457 -6.627,0.965 -0.837,-0.65 -1.486,-1.244 -2.08,-2.029 -4.888,-5.089 -9.776,-10.18 -14.421,-15.404 -6.995,-7.742 -13.745,-15.62 -20.497,-23.496 -3.537,-4.088 -3.615,-7.386 -0.878,-11.926 4.714,-7.864 9.563,-15.484 14.466,-23.293 0.813,-1.405 1.49,-3.055 2.817,-4.108 z m -17.6,19.938 0.135,0.242 -0.19,-0.05 z m -0.541,0.459 c -0.653,3.704 -2.415,6.27 -3.662,9.189 -1.784,-0.921 -3.242,-1.545 -5.025,-2.466 2.761,-2.485 4.954,-5.132 8.687,-6.723 z m 128.81,89.172 c -0.857,0.479 -1.813,0.608 -2.954,0.4 -1.325,-0.38 -2.704,-0.572 -4.055,-1.574 2.518,-2.35 3.331,-5.188 3.768,-8.135 0.654,-5.137 1.122,-10.33 1.777,-15.467 0.03,-0.811 0.05,-1.621 -0.295,-2.541 -0.54,-0.974 -0.836,-2.082 -2.16,-2.463 -1.325,-0.38 -2.085,0.835 -2.735,1.672 -0.65,0.838 -0.975,1.974 -1.49,3.055 -1.519,3.865 -3.038,7.731 -5.719,10.648 -2.353,2.561 -4.283,5.046 -6.13,7.944 -0.853,-0.467 -1.637,0.337 -2.29,0.699 -1.461,0.81 -2.839,0.62 -4.542,0.131 -8.542,-3.066 -17.355,-5.186 -26.059,-7.684 l -25.168,-7.222 c -4.163,-1.195 -5.214,-3.953 -3.316,-7.709 0.352,-0.514 0.514,-1.082 0.812,-1.407 l 10.484,-17.267 c 5.988,-10.161 12.167,-20.267 18.155,-30.428 0.758,-1.216 1.382,-2.674 3.437,-2.699 8.871,-0.936 17.364,-3.416 25.778,-6.326 0.598,-0.213 1.106,-0.306 1.548,-0.264 v 0 c 0.738,0.07 1.297,0.518 1.803,1.432 2.402,3.761 5.104,7.197 8.102,10.31 3.539,3.676 7.333,7.21 11.276,10.531 m -137.175,-15.23 c 1.93,-0.03 4.407,1.173 5.186,2.83 0.836,2.083 0.376,2.974 -1.787,3.377 -1.488,0.188 -2.976,0.375 -4.518,0.752 -1.542,0.377 -2.137,-0.408 -2,-1.598 -0.161,-0.865 0.112,-1.81 0.166,-2 0.815,-2.838 0.868,-3.027 2.166,-3.269 0.247,-0.06 0.512,-0.09 0.787,-0.09 z m 3.235,7.426 c 1.313,-0.09 1.561,0.514 1.701,2.705 0.314,8.897 0.681,17.605 1.131,26.746 -1.866,0.08 -3.787,0.346 -5.842,0.371 -0.856,-8.438 -1.522,-16.821 -2.242,-25.016 -0.267,-3.353 0.03,-3.677 3.547,-4.511 0.71,-0.155 1.267,-0.264 1.705,-0.295 z m 36.029,37.953 c 2.215,2.274 3.782,3.952 5.457,5.252 2.702,2.004 2.807,4.492 2.371,7.439 l -2.539,19.547 c -0.518,3.948 -0.329,4.002 -4.113,2.916 -0.946,-0.271 -1.893,-0.543 -2.731,-1.193 -1.216,-0.759 -1.999,-1.597 -1.888,-3.408 1.012,-9.95 2.214,-19.846 3.443,-30.553 z m -732.029,5.168 c 0.282,0 0.564,0 0.845,0 1.349,0.07 2.676,0.434 3.922,1.176 4.216,2.438 7.485,6.039 8.75,10.908 0.673,2.651 1.887,4.842 3.723,7.008 7.589,8.527 14.771,17.756 22.603,26.148 3.457,3.655 5.94,7.849 9.993,10.856 3.35,2.599 3.351,2.599 0.103,5.353 -1.976,1.891 -3.872,4.215 -4.795,7.432 -1.81,-1.544 -3.487,-2.844 -4.973,-4.09 -11.184,-9.559 -20.986,-20.359 -32.279,-29.539 -6.132,-5.037 -11.074,-11.371 -19.4,-13.76 -4.731,-1.357 -6.371,-9.202 -3.393,-12.443 2.681,-2.918 5.495,-5.591 9.094,-7.426 1.835,-0.93 3.831,-1.567 5.807,-1.631 z m 825.861,1.408 c 0.161,-0.01 0.339,0 0.535,0.02 1.135,0.326 0.998,1.516 0.916,2.516 -0.222,5.057 -0.822,10.004 -2.045,14.979 0,1.433 -1.082,0.917 -2.002,1.267 -0.217,0.757 0.486,1.164 0.701,1.84 0.836,2.083 -0.384,4.192 -2.683,4.352 -2.921,0.186 -6.918,-3.011 -7.158,-5.743 -0.323,-1.731 0.516,-2.513 2.058,-2.89 1.786,-0.512 3.271,0.734 5.002,0.412 -0.107,-1.055 -1.054,-1.328 -1.81,-1.545 -1.081,-0.515 -1.486,-1.245 -0.782,-2.272 2.222,-3.458 3.687,-7.134 5.395,-10.945 0.403,-0.78 0.743,-1.892 1.873,-1.994 z m -83.975,4.035 c 2.487,1.328 4.269,3.682 7.108,4.496 6.812,1.955 13.381,4.045 20.193,6 10.408,2.987 20.868,5.785 31.33,8.582 0.946,0.272 2.191,0.219 3.055,1.491 -1.813,1.323 -3.277,3.566 -5.522,3.537 -4.219,0.427 -7.249,2.425 -10.199,4.855 1.19,0.137 1.757,0.299 1.512,1.867 -0.815,2.839 -0.33,5.435 1.154,8.114 -7.683,2.506 -15.313,4.822 -22.752,7.193 -3.138,0.943 -6.383,2.266 -9.656,2.965 -4.436,1.185 -8.191,-2.148 -7.699,-6.717 0.628,-5.759 1.712,-6.675 7.662,-7.426 6.761,-0.722 13.333,-1.499 19.959,-2.465 2.786,-0.429 5.571,-0.86 7.871,-2.453 -0.783,-0.839 -1.568,-0.245 -2.244,-0.03 -5.302,1.346 -10.819,2.016 -16.147,2.74 -5.084,0.589 -10.464,0.07 -15.361,2.145 -0.487,0.27 -1.109,0.297 -1.568,-0.244 -2.592,-3.816 -6.782,-5.633 -10.62,-7.963 -1.216,-0.759 -1.431,-1.436 -1.24,-2.815 0.765,-6.949 1.341,-13.951 2.106,-20.9 0.08,-1.001 0.03,-2.244 1.058,-2.973 z m -14.441,23.914 c 2.406,0.895 4.46,2.305 6.785,2.768 5.083,0.844 8.946,3.796 12.863,6.558 2.189,1.653 3.729,4.142 2.725,6.926 -1.438,4.298 -0.605,7.815 2.988,10.28 -0.597,2.081 -2.221,3.458 -3.601,4.701 -7.092,6.157 -15.368,7.878 -24.399,6.515 -5.137,-0.655 -12.35,-6.207 -12.478,-12.183 -0.07,-6.166 1.176,-11.952 3.238,-17.709 3.27,2.167 6.324,2.225 9.49,0.47 2.545,-1.41 3.017,-3.413 1.578,-5.791 1.072,-0.509 -0.488,-2.121 0.811,-2.535 z m -219.166,17.733 c 0.655,0.02 1.33,0.451 1.922,0.621 1.892,0.543 3.567,1.844 5.107,2.9 4.81,3.224 8.537,7.364 12.264,11.506 3.538,4.087 6.479,8.823 11.045,12.182 23.479,17.388 46.849,35.155 70.328,52.543 2.188,1.656 3.701,3.516 3.887,6.436 -0.05,0.19 0.134,0.25 0.269,0.49 -0.189,-0.1 -0.431,0.1 -0.431,0.1 -0.325,-0.3 -0.08,-0.43 0.162,-0.57 -1.542,0.38 -2.405,-0.89 -3.432,-1.6 -25.073,-18.251 -49.957,-36.453 -74.977,-54.897 -4.242,-3.06 -8.89,-5.418 -13.755,-7.019 -3.217,-0.924 -5.541,-2.818 -7.512,-5.227 -3.105,-4.168 -4.56,-9.092 -6.313,-13.691 -0.485,-1.164 -0.349,-2.352 0.301,-3.19 0.356,-0.435 0.742,-0.575 1.135,-0.564 z m -587.5255,6.967 c 0.666,-0.09 1.3949,0.221 2.2324,0.871 4.7817,4.034 10.1364,3.932 15.9531,1.505 0.3735,4.409 0.2641,4.788 -3.3066,5.811 -4.4362,1.185 -9.0615,2.315 -13.4434,3.311 -2.84,0.618 -5.0289,-1.033 -5.2148,-3.954 -0.2139,-2.109 0.5735,-4.137 1.9277,-6.002 0.5825,-0.959 1.1856,-1.452 1.8516,-1.542 z m 38.6465,5.97 c 3.3364,-0.118 6.4737,0.86 9.4121,2.932 26.1559,17.337 52.1229,34.618 78.2789,51.955 0.703,0.406 1.35,1.002 1.998,1.598 1.243,1.38 1.053,2.76 -0.787,3.461 -2.705,0.862 -4.005,2.537 -3.791,4.646 -0.735,4.709 -2.929,7.349 -7.609,8.669 -17.61,4.99 -35.193,10.59 -52.668,15.82 -16.8529,5.19 -33.6515,10.21 -50.5586,15.6 -2.8944,0.8 -5.0849,0.58 -7.4082,-1.31 -3.9442,-3.39 -8.2401,-6.26 -12.4278,-9.51 -8.943,-6.66 -18.0218,-13.57 -26.9648,-20.23 -1.6751,-1.3 -2.836,-2.25 -1.6973,-4.79 0.8409,-2.214 1.411,-4.919 -0.047,-6.976 -2.1062,-2.652 -1.9135,-5.463 -1.9102,-8.33 -0.1563,-5.165 -0.3121,-10.331 -0.4141,-15.685 -0.2369,-5.598 0.7699,-11.248 1.7227,-16.709 0.4624,-2.325 1.5456,-3.244 3.7637,-3.836 22.6942,-5.571 45.2,-11.197 67.705,-16.822 1.1564,-0.283 2.2903,-0.444 3.4024,-0.483 z m 95.055,0.498 c 0.879,-0.03 1.811,0.29 2.838,0.994 5.458,3.82 7.371,9.284 8.689,15.397 0.457,1.974 -0.867,3.028 -2.059,4.324 -0.73,0.405 -2.299,0.159 -2.166,1.836 1.434,0 2.301,-1.592 4.004,-1.103 0.08,0.432 0.404,0.73 0.295,1.109 -1.418,10.653 -2.7,21.548 -4.119,32.201 -0.573,4.137 -1.846,5.001 -5.848,4.672 -1,-0.08 -1.946,-0.353 -2.947,-0.436 -1.946,-0.353 -2.431,-1.518 -2.564,-3.195 -0.02,-6.355 -0.283,-12.575 -0.06,-19.064 0.166,-3.434 0.387,-7.056 1.932,-10.299 0.623,-1.46 1.516,-2.432 3.517,-2.268 2.056,-0.02 4.22,-0.429 5.789,-1.617 -0.998,-1.515 -2.189,-0.218 -3.244,-0.111 -2.677,0.05 -5.707,0.615 -7.597,-1.362 -5.483,-5.874 -5.852,-14.582 1.023,-19.982 0.812,-0.689 1.637,-1.066 2.516,-1.096 z m -189.22494,13.67 c 4.645098,5.225 11.24273,5.071 17.73244,5.295 -2.4223,13.437 -1.6806,26.553 -1.5606,39.695 -3.19052,-0.301 -6.08317,-0.926 -9.00387,-0.74 -2.487938,0.105 -3.215794,-0.924 -3.429686,-3.033 -1.770414,-12.387 -3.540414,-24.774 -4.445314,-37.322 -0.0526,-1.244 -0.5386,-2.409 0.70703,-3.895 z m -2.01172,9.869 c 0.83091,6.383 1.58019,12.333 2.38477,18.094 0.80458,5.761 1.8524,11.385 2.16992,17.416 -0.56768,-0.163 -1.00022,-0.08 -1.18945,-0.137 -8.94138,-8.096 -17.88248,-16.191 -26.76958,-24.476 -1.8099,-1.544 -1.538,-2.488 0.7344,-3.27 7.3042,-2.614 14.798,-5.175 22.66994,-7.627 z m -24.81254,12.951 c 8.8065,7.853 17.2345,15.596 25.71684,23.151 0.83754,0.65 1.48558,1.246 1.10547,2.57 -1.08604,3.785 0.77687,6.572 3.07226,9.282 1.377243,1.62 2.186504,3.08 2.4004,5.19 0.67131,4.08 2.4511,7.87 4.52929,11.34 -0.0891,0.31 -0.0234,1.06 0.56836,0.92 -0.60109,0.72 0.10625,1.15 0.67969,1.66 0.22346,0.46 0.4079,1.01 0.47851,1.39 0.29784,-0.32 0.67672,-0.21 0.6504,-0.83 -0.0209,-0.5 -0.3875,-0.7 -0.84766,-0.75 0.70702,-0.73 0.32264,-1.21 -0.55078,-1.66 0.0176,0 0.0306,0 0.0488,0 -0.24022,-2.73 -1.64382,-4.98 -2.3711,-7.44 -0.53804,-2.4 -1.50895,-4.73 -1.3164,-7.54 3.32381,1.97 6.11116,0.11 9.27542,-0.21 -0.2798,8.11 0.7383,15.98 1.459,24.18 -1.4052,-0.82 -2.0535,-1.41 -2.9453,-1.87 -0.2995,1.75 1.1593,2.38 1.834,3.6 0.7289,1.03 1.7569,1.73 2.9746,1.06 0.9741,-0.54 0.6772,-1.65 0.5703,-2.71 -1.1288,-6.06 -1.4468,-12.09 -2.0078,-17.98 -0.107,-1.06 -0.5906,-2.22 0.4921,-3.14 0.3785,0.11 0.9454,0.27 1.2696,0.57 13.1307,9.91 26.2605,19.82 39.6347,29.6 2.1885,1.65 2.0784,3.46 1.7247,5.41 -0.7636,5.52 -1.6621,10.79 -2.2364,16.36 -2.1837,17.6 -4.5565,35.15 -6.7402,52.75 -2.1277,15.98 -4.2004,31.77 -6.3281,47.75 -0.1909,1.38 -0.058,3.05 -1.4649,3.67 -1.6504,0.76 -2.9477,-0.43 -4.1093,-1.38 -0.5134,-0.35 -0.7816,-0.84 -1.295,-1.19 -24.4201,-21.96 -48.842,-43.92 -73.3164,-65.69 -4.5381,-4.17 -6.2903,-8.77 -5.6074,-14.72 l 1.8867,-17.27 c 3.0625,-29.23 6.18,-58.65 9.4317,-87.823 0.3274,-2.569 0.141,-5.489 1.3339,-8.219 z m 36.94145,23.065 c 1.72021,0.03 3.40339,0.186 4.99995,0.644 1.5139,0.435 3.0815,0.68 3.3497,2.6 0.9658,6.624 -5.12412,11.434 -11.44926,9.214 -2.405657,-0.9 -3.540345,-2.66 -4.86328,-4.472 -2.21312,-3.707 -0.26037,-7.654 3.9043,-7.892 0.77748,-0.03 1.55488,-0.07 2.32812,-0.08 0.57993,-0.01 1.15707,-0.02 1.73047,-0.01 z m 174.90075,0.295 c 0.445,-0.04 0.905,0 1.379,0.142 2.514,0.517 4.949,0.6 7.572,0.739 1.189,0.136 1.946,0.354 2.242,1.463 2.131,4.707 -1.336,9.649 -6.527,9.189 -0.812,0 -1.38,-0.19 -2.137,-0.41 -2.704,-0.57 -4.568,-1.93 -5.674,-4.496 -0.755,-1.651 -1.564,-3.112 -0.318,-4.598 0.934,-1.114 2.126,-1.923 3.463,-2.029 z m -5.01,6.707 c 2.02,6.516 7.97,5.766 13.16,7.666 -8.227,5.83 -13.752,13.67 -20.439,20.56 -2.725,-5.5 -0.04,-9.85 1.205,-14.2 1.303,-4.54 3.229,-9.11 6.074,-14.026 z m 12.861,9.426 c 0.379,0.11 0.702,0.4 1.08,0.51 -0.628,5.76 -1.201,11.33 -1.83,17.09 -2.975,23.93 -6.14,47.8 -9.115,71.73 -0.954,6.9 -1.855,13.6 -5.135,20.03 -1.491,3.06 -3.441,5.57 -6.687,6.89 -11.336,4.53 -23.075,8.33 -34.545,12.62 -5.952,2.18 -12.229,4.07 -18.235,6.44 -21.236,7.63 -42.5266,15.44 -63.5738,23.13 -4.112,1.48 -5.4635,0.48 -5.0801,-3.71 -0.026,-0.63 0.1379,-1.19 0.3008,-1.76 2.0191,-15.6 4.0379,-31.2 6.1113,-46.99 1.5008,-11.65 3.1903,-23.25 4.6367,-34.72 1.5814,-11.22 3.217,-22.63 4.42,-33.96 0.3817,-2.76 1.1952,-4.16 3.9004,-5.02 33.5165,-10.45 67.0317,-20.91 100.6837,-31.12 0.92,-0.35 2.002,-1.27 3.164,-0.32 -0.843,3.65 -1.307,7.41 -2.393,11.19 -0.977,3.41 0.08,6.17 2.018,9.39 5.553,-8.65 13.079,-14.89 20.279,-21.42 z M 9.24805,1025.7 c -0.21589,0 -0.49408,0.1 -0.85938,0.26 0.65093,0.38 0.50641,1.73 1.59766,1.43 -0.53073,0.89 0.21237,0.93 0.75197,1.09 0.1943,-0.68 -0.057,-0.98 -0.5156,-1.16 0.012,0 0.019,0 0.031,0 -0.26285,-0.69 -0.35818,-1.56 -1.00585,-1.61 z"
         transform="matrix(-0.488256,0.140113,-0.140113,-0.488256,757.346,1017.36)"
         id="path6257"
         inkscape:connector-curvature="0"
         sodipodi:nodetypes="cccccccccccccccccccscccccccccccscccccccsccccccccccccccccccsccccscccccccccccccccccccccccccccccccccccccccccccccccccccccccccccccccccccccccccccccscscccccccccccccsccscscccccccccccsccccccccccccccscccccccccccccccccscccccccccccccccccccccccccccccccccccccccccccccccccccccccccccccccccccccsscccccccccccccccccsccccccccccccccccccccscccccccccccccccscsccccscccccccccccccccccsccccccccsccccccccccccccccccccccccccccccccsccccccccccccccccccsccccccccccccccccccccscccccccccccccccccccccccccccccccccccccssscccccccccccccsccsccccccccccscccccccccccccccccccscccscsccccccccccccccccccccccsccccccccccccccccccccccccccccccccccccccccccsscscccsccccscccccccccscccscccccccscccccsccccccccccccccccccccscccccccccccccccccsscccccccccccccccccccccccccccccsccssccccccccccccccsccccccccsccccccccccccccccccsccccccccsccccccccccccccccccscccccccssccsccscccccccccsccccccccccccccccccsccccsscccccccscccccccccccccccccccccccscccccccccccccccccc" />
      <path
         inkscape:connector-curvature="0"
         style="fill:#967c99;fill-opacity:0.4"
         class="st41"
         d="m 250.9,623.8 c -0.9,-1.6 -2.4,-2 -4,-2.3 -1.5,-0.2 -2.7,0.9 -3.2,2.8 0,0 0,0 0,0 3.4,-2.6 3.4,-2.6 7.2,-0.5 z"
         id="path6259" />
      <path
         inkscape:connector-curvature="0"
         style="fill:#967c99;fill-opacity:0.4"
         class="st41"
         d="m 596.2,633 c -0.1,0 -0.2,0 -0.3,0 0,0.8 -0.3,1.6 0.4,2.3 0.1,0.1 0.2,0.2 0.4,0.2 0.1,-0.9 0,-1.8 -0.5,-2.5 z"
         id="path6261" />
      <path
         inkscape:connector-curvature="0"
         style="fill:#967c99;fill-opacity:0.4"
         class="st41"
         d="m 173.9,700.8 c -0.1,0.1 -0.2,0.3 -0.4,0.4 0.1,0.1 0.2,0.2 0.3,0.3 0.2,0 0.4,-0.2 0.4,-0.4 -0.1,0 -0.2,-0.1 -0.3,-0.3 z"
         id="path6285" />
      <polygon
         style="fill:#ffffff;fill-opacity:1"
         class="st41"
         points="237.4,737.8 237.4,737.7 237.3,737.7 "
         id="polygon6287" />
      <path
         inkscape:connector-curvature="0"
         style="fill:#967c99;fill-opacity:0.4"
         class="st41"
         d="m 253.6,630.7 c 0.1,-0.1 0.2,-0.2 0,-0.3 -0.1,0 -0.2,0 -0.2,0.1 0.1,0 0.2,0.1 0.2,0.2 0.1,-0.1 0,0 0,0 z"
         id="path6289" />
      <path
         style="fill:#967c99;fill-opacity:0.4"
         d="m 847.109,885.287 c -0.794,0.148 -0.474,0.616 -0.207,1.068 l -0.119,0.07 0.539,0.974 c 0.433,-0.08 0.677,-0.216 0.92,-0.351 -0.02,-0.551 -0.15,-0.799 -0.568,-0.963 0,0 0.02,0 0.03,-0.01 -0.08,-0.432 -0.161,-0.864 -0.594,-0.783 z"
         transform="matrix(-0.488256,0.140113,-0.140113,-0.488256,757.346,1017.36)"
         id="path6291"
         inkscape:connector-curvature="0" />
      <path
         inkscape:connector-curvature="0"
         style="fill:#ffffff;fill-opacity:1"
         class="st41"
         d="m 85.8,738.1 c -0.8,0.5 -0.8,0.5 -1.4,1.5 1,0 1.4,-0.5 1.6,-1.4 0,0 0,-0.2 0,-0.2 z"
         id="path6297" />
      <path
         inkscape:connector-curvature="0"
         style="fill:#ffffff;fill-opacity:1"
         class="st41"
         d="m 148.5,728.1 c -0.1,-0.1 -0.2,-0.2 -0.4,-0.2 -0.3,-0.2 -0.8,-0.3 -0.9,0.1 -0.1,0.4 0.3,0.6 0.7,0.6 0.3,-0.2 0.5,-0.4 0.6,-0.5 z"
         id="path6299" />
      <path
         inkscape:connector-curvature="0"
         style="fill:#967c99;fill-opacity:0.4"
         class="st41"
         d="m 333.5,645.5 c -1.5,-0.1 -2.7,0 -3.8,0.4 -1.5,0.4 -2,1.3 -1.6,2.8 0.3,1.3 0.9,2.5 1.7,3.7 3,4.2 6.5,8 10.1,11.7 4.1,4.2 8.3,8.3 12.5,12.4 9.3,8.9 19.1,17.3 29.9,24.4 8.9,5.8 17.8,11.7 27.2,16.8 5.2,2.8 10.8,5 16.3,7.2 7.3,2.9 14.8,5.4 22.3,7.6 5.5,1.6 10.9,3.4 16.6,4 2.3,0.2 4.6,0 6.8,-0.6 1.5,-0.4 1.4,-0.5 1.1,-1.9 -0.9,-3.2 -2.6,-5.9 -4.4,-8.5 -4.5,-6.6 -9.8,-12.5 -15.7,-17.9 -6.3,-5.8 -13.1,-11.1 -19.9,-16.4 -6.9,-5.3 -14.2,-10.2 -21.5,-15 -5.8,-3.7 -11.5,-7.5 -17.4,-11 -5.9,-3.5 -12,-6.4 -18.3,-9 -4.3,-1.8 -8.6,-3.6 -12.9,-5.3 -4.2,-1.7 -8.7,-2.3 -13.1,-3.3 -4.6,-0.9 -9.2,-1.6 -13.8,-1.9 -0.8,-0.3 -1.6,-0.2 -2.1,-0.2 z m 33.3,11.9 c -0.2,1 0.8,1.2 1.2,1.6 1.2,1.2 1.2,1.1 0.4,2.6 -1.7,2.9 -3.3,5.8 -5.1,8.7 -0.5,0.8 -0.5,1.5 -0.2,2.4 0.7,1.5 1.5,2.7 2.6,4 5.1,6.2 10.7,11.9 17.3,16.6 4.5,3.2 8.8,6.7 13.8,9.1 0.7,0.3 1.3,0.8 2.2,0.6 v 0.1 c -13.9,-7.9 -26.4,-17.6 -35.5,-31.1 1,-0.4 1.7,-0.1 2.5,0.1 9.4,2.8 18.1,7.1 26.3,12.4 3.6,2.3 7.1,4.9 10.6,7.3 6.8,4.6 13.5,9.5 19.7,14.9 1.3,1.2 2.6,2.5 3.6,4 0.4,0.7 1.5,1.5 1,2.2 -0.6,0.8 -1.7,0.2 -2.6,-0.1 -7.9,-2.2 -15.7,-5 -23.1,-8.5 -0.5,-0.2 -0.9,-0.6 -1.6,-0.3 1.7,1.2 3.4,1.9 5.1,2.7 7,3.3 14.3,5.9 22,7 0.9,0.1 1.5,-0.1 2,-0.8 1.7,-2.4 3.4,-4.8 5,-7.2 1,-1.6 1,-1.7 2.9,-0.8 6.7,3.2 13.4,6.6 20.3,9.4 0.7,0.3 1.2,0.7 1.7,1.2 2.6,2.5 5,5.2 7.1,8 2.2,2.9 4.2,6 5.3,9.5 0.6,1.9 0.3,2.5 -1.8,2.7 -1.4,0.1 -2.9,0.1 -4.3,-0.1 -8.4,-1.3 -16.6,-3.6 -24.7,-6.3 -9.5,-3.2 -18.6,-7.5 -27.7,-11.5 -2.7,-1.2 -5.5,-2.3 -8.1,-3.8 -9,-5.1 -17.9,-10.5 -26.2,-16.8 -7.8,-5.9 -15.4,-11.9 -22.5,-18.6 -6.5,-6.2 -12.7,-12.6 -18.9,-19.1 -2.4,-2.5 -4.9,-5.1 -6.7,-8.1 -0.5,-0.8 -1.1,-1.7 -1.3,-2.7 -0.2,-0.8 -0.1,-1.3 0.9,-1.6 1.1,-0.2 2.1,-0.4 3.2,-0.4 8.7,-0.5 17.1,1.4 25.4,3.6 0.8,0.2 1.4,0.7 1.9,1.3 1,1.2 1.8,2.6 3.3,3.4 -0.2,-1.4 -1.8,-2 -2.1,-3.4 0.6,-0.2 1.1,0 1.7,0.2 2,0.5 3.8,1.4 5.5,2.4 3.5,2.1 4,1.4 0.7,5.1 -1.1,-0.4 -1.7,-1.6 -2.8,-1.9 z m -2.3,12.9 c 0.1,-0.2 0.1,-0.4 0.2,-0.6 2.5,-4.1 5,-8.1 7.6,-12.2 0.5,-0.9 1.2,-1 2.2,-0.7 4.2,1.5 8.2,3.4 12.1,5.4 11.8,6.3 23.1,13.4 34,21.2 5.5,4 10.9,8.1 16.2,12.3 1,0.8 0.9,1.3 0.3,2.2 -1.6,2.6 -3,5.2 -4.6,7.7 -1.3,2 -2.3,4.2 -4.1,6 -1.5,-2 -3.1,-3.6 -4.8,-5.3 -3.9,-3.7 -8.2,-6.9 -12.5,-10.2 -9.2,-7.2 -18.9,-13.5 -29.1,-19 -4.8,-2.6 -9.6,-5.2 -14.9,-6.5 -0.8,0.2 -1.8,0.3 -2.6,-0.3 z m 91.3,42.1 c -0.2,0 -0.4,0.1 -0.5,0.1 -6.4,-2.7 -12.5,-6 -18.8,-8.9 -0.6,-0.3 -0.7,-0.6 -0.3,-1.2 0.7,-1.2 1.5,-2.4 2.1,-3.7 0.5,-1 0.9,-1 1.8,-0.4 2.8,2 5.4,4.2 7.9,6.5 2.6,2.4 5.2,5 7.8,7.6 z"
         id="path6301" />
      <path
         inkscape:connector-curvature="0"
         style="fill:#967c99;fill-opacity:0.4"
         class="st41"
         d="m 319.4,650.8 c -0.2,1.1 0.7,1.6 1.3,2.2 0.1,-1.1 -0.7,-1.6 -1.3,-2.2 z"
         id="path6303" />
      <path
         inkscape:connector-curvature="0"
         style="fill:#967c99;fill-opacity:0.4"
         class="st41"
         d="m 318.5,649.9 c 0.1,0.5 0.2,1.1 0.9,0.9 -0.2,-0.4 -0.2,-1 -0.9,-0.9 z"
         id="path6305" />
      <path
         inkscape:connector-curvature="0"
         style="fill:#967c99;fill-opacity:0.4"
         class="st41"
         d="m 600.9,588.7 c -0.6,-0.3 -1.1,-0.4 -1,-1.3 0.2,-1.9 0.8,-3.8 1.2,-5.6 0.4,-1.9 1.4,-3.6 1.4,-5.6 -1.7,3.7 -2.9,7.5 -2.8,11.7 0,0.9 -0.4,1.8 -0.4,2.7 0.5,-0.6 1.2,-1.1 1.6,-1.9 z"
         id="path6315" />
      <path
         inkscape:connector-curvature="0"
         style="fill:#967c99;fill-opacity:0.4"
         class="st41"
         d="m 598.2,590.9 c 0.6,0.4 0.7,-0.2 0.9,-0.5 -0.5,-0.3 -0.7,0.2 -0.9,0.5 z"
         id="path6317" />
      <path
         inkscape:connector-curvature="0"
         style="fill:#967c99;fill-opacity:0.4"
         class="st41"
         d="m 579.2,725.4 c 1,1.5 2.3,2 3.5,3.4 -0.7,-1.4 -2,-2.6 -3.5,-3.4 z"
         id="path6319" />
      <path
         inkscape:connector-curvature="0"
         style="fill:#967c99;fill-opacity:0.4"
         class="st41"
         d="m 584.1,729.1 c -0.4,-0.2 -0.7,-0.4 -1.1,-0.6 0.1,0.9 0.6,0.9 1.1,0.6 0,0 0,0 0,0 z"
         id="path6321" />
      <path
         inkscape:connector-curvature="0"
         style="fill:#967c99;fill-opacity:0.4"
         class="st41"
         d="m 584.1,729.1 c -0.2,0.1 -0.4,0.2 -0.2,0.4 0,0 0.1,0 0.1,0 0.1,-0.1 0.1,-0.2 0.1,-0.4 0,0 0,0 0,0 z"
         id="path6323" />
      <path
         inkscape:connector-curvature="0"
         style="fill:#967c99;fill-opacity:0.4"
         class="st41"
         d="m 593,618.5 c 0.2,0.4 0.2,1 0.9,0.9 -0.1,-0.4 -0.4,-0.7 -0.9,-0.9 z"
         id="path6325" />
      <path
         inkscape:connector-curvature="0"
         style="fill:#967c99;fill-opacity:0.4"
         class="st41"
         d="m 596.3,604.7 c -0.3,-0.2 -0.4,-0.7 -0.9,-0.4 0.2,0.4 0.5,0.5 0.9,0.4 z"
         id="path6327" />
      <path
         inkscape:connector-curvature="0"
         style="fill:#967c99;fill-opacity:0.4"
         class="st41"
         d="m 592.2,617.7 c 0.1,0.3 0.2,0.4 0.5,0.5 -0.1,-0.4 -0.1,-0.6 -0.5,-0.5 z"
         id="path6329" />
      <path
         inkscape:connector-curvature="0"
         style="fill:#967c99;fill-opacity:0.4"
         class="st41"
         d="m 597.2,605.6 c 0,-0.4 -0.2,-0.4 -0.5,-0.5 0,0.3 0.3,0.4 0.5,0.5 z"
         id="path6331" />
      <path
         inkscape:connector-curvature="0"
         style="fill:#967c99;fill-opacity:0.4"
         class="st41"
         d="m 596.8,605.2 c -0.2,-0.2 -0.3,-0.3 -0.5,-0.5 0,0.3 0.3,0.4 0.5,0.5 z"
         id="path6333" />
      <path
         inkscape:connector-curvature="0"
         style="fill:#967c99;fill-opacity:0.4"
         class="st41"
         d="m 595.5,604.3 c 0.1,-0.4 -0.1,-0.6 -0.5,-0.5 0,0.3 0.2,0.5 0.5,0.5 z"
         id="path6335" />
      <path
         inkscape:connector-curvature="0"
         style="fill:#967c99;fill-opacity:0.4"
         class="st41"
         d="m 595,603.9 c 0,-0.3 0.1,-0.7 -0.5,-0.5 0.1,0.3 0.3,0.5 0.5,0.5 z"
         id="path6337" />
      <path
         inkscape:connector-curvature="0"
         style="fill:#967c99;fill-opacity:0.4"
         class="st41"
         d="m 607.6,581.3 c -0.4,-0.4 -0.6,0 -0.8,0.2 -1.9,2.2 -3.8,4.4 -5.9,6.4 -0.2,0.2 -0.6,0.5 -0.1,0.8 2.7,-2.1 4.9,-4.6 6.8,-7.4 z"
         id="path6339" />
      <path
         inkscape:connector-curvature="0"
         style="fill:#967c99;fill-opacity:0.4"
         class="st41"
         d="m 609.3,578.7 c -0.8,0.6 -1.3,1.4 -1.9,2.2 -0.2,0.2 0,0.4 0.2,0.5 0.8,-0.8 1.7,-1.4 1.7,-2.7 z"
         id="path6341" />
      <path
         inkscape:connector-curvature="0"
         style="fill:#967c99;fill-opacity:0.4"
         class="st41"
         d="m 182.8,702.6 c -0.5,0.2 -0.9,0.3 -0.9,0.9 0.4,-0.2 1,-0.2 0.9,-0.9 z"
         id="path6343" />
      <path
         inkscape:connector-curvature="0"
         style="fill:#967c99;fill-opacity:0.4"
         class="st41"
         d="m 243.4,633.8 c -0.3,-0.3 -0.5,0 -0.6,0.2 -5.3,7.1 -10.6,14.1 -15.8,21.2 -0.1,0.1 0,0.3 -0.1,0.4 0.3,0.3 0.5,0.1 0.6,-0.1 5.3,-7.1 10.8,-14.2 15.9,-21.5 0,-0.1 0,-0.1 0,-0.2 z"
         id="path6345" />
      <path
         inkscape:connector-curvature="0"
         style="fill:#967c99;fill-opacity:0.4"
         class="st41"
         d="m 226.9,655.5 c -0.8,0.4 -1.1,1 -1.3,1.8 1,-0.2 1.3,-0.7 1.3,-1.8 z"
         id="path6347" />
      <path
         inkscape:connector-curvature="0"
         style="fill:#967c99;fill-opacity:0.4"
         class="st41"
         d="m 244.7,632 c -0.7,-0.1 -0.7,0.5 -0.9,0.9 0.7,0.2 0.7,-0.4 0.9,-0.9 z"
         id="path6349" />
      <path
         inkscape:connector-curvature="0"
         style="fill:#967c99;fill-opacity:0.4"
         class="st41"
         d="m 245.1,631.2 c -0.3,0.2 -0.8,0.4 -0.4,0.9 0.3,-0.2 0.6,-0.4 0.4,-0.9 z"
         id="path6351" />
      <path
         inkscape:connector-curvature="0"
         style="fill:#967c99;fill-opacity:0.4"
         class="st41"
         d="m 243.8,632.9 c -0.4,0.2 -0.8,0.4 -0.4,0.9 0.4,-0.2 0.8,-0.3 0.4,-0.9 z"
         id="path6353" />
      <path
         inkscape:connector-curvature="0"
         style="fill:#967c99;fill-opacity:0.4"
         class="st41"
         d="m 174.6,705.8 c 0.3,0.6 0.7,0.9 1.3,0.9 0,-0.9 -0.5,-1.2 -1.3,-0.9 z"
         id="path6355" />
      <path
         inkscape:connector-curvature="0"
         style="fill:#967c99;fill-opacity:0.4"
         class="st41"
         d="m 167.9,716.2 c -0.1,-0.8 -0.7,-0.9 -1.3,-0.9 0,1 0.7,1 1.3,0.9 z"
         id="path6357" />
      <path
         inkscape:connector-curvature="0"
         style="fill:#967c99;fill-opacity:0.4"
         class="st41"
         d="m 366.8,657.5 c -0.8,-1.2 -1.8,-2 -3.1,-2.6 0.7,1 1.5,1.8 2.4,2.6 0.3,0.2 0.5,0.3 0.7,0 z"
         id="path6359" />
      <path
         inkscape:connector-curvature="0"
         style="fill:#ffffff;fill-opacity:1"
         class="st41"
         d="m 399,702.9 v 0 c -0.1,0.1 0,0.1 0,0 0,0.1 0,0 0,0 z"
         id="path6361" />
    </g>
  </g>
</svg>
