<?xml version="1.0" encoding="UTF-8" standalone="no"?>
<!-- Created with Inkscape (http://www.inkscape.org/) -->

<svg
   xmlns:dc="http://purl.org/dc/elements/1.1/"
   xmlns:cc="http://creativecommons.org/ns#"
   xmlns:rdf="http://www.w3.org/1999/02/22-rdf-syntax-ns#"
   xmlns:svg="http://www.w3.org/2000/svg"
   xmlns="http://www.w3.org/2000/svg"
   xmlns:sodipodi="http://sodipodi.sourceforge.net/DTD/sodipodi-0.dtd"
   xmlns:inkscape="http://www.inkscape.org/namespaces/inkscape"
   width="120mm"
   height="60mm"
   viewBox="0 0 120 60"
   version="1.1"
   id="svg4270"
   inkscape:version="0.92.1 r15371">
  <defs
     id="defs4264" />
  <sodipodi:namedview
     id="base"
     pagecolor="#ffffff"
     bordercolor="#666666"
     borderopacity="1.0"
     inkscape:pageopacity="0.0"
     inkscape:pageshadow="2"
     inkscape:zoom="0.64"
     inkscape:cx="514.509"
     inkscape:cy="68.5645"
     inkscape:document-units="mm"
     inkscape:current-layer="layer1"
     showgrid="false"
     fit-margin-top="0"
     fit-margin-left="0"
     fit-margin-right="0"
     fit-margin-bottom="0"
     inkscape:window-width="1920"
     inkscape:window-height="1016"
     inkscape:window-x="0"
     inkscape:window-y="27"
     inkscape:window-maximized="1" />
  <metadata
     id="metadata4267">
    <rdf:RDF>
      <cc:Work
         rdf:about="">
        <dc:format>image/svg+xml</dc:format>
        <dc:type
           rdf:resource="http://purl.org/dc/dcmitype/StillImage" />
        <dc:title></dc:title>
      </cc:Work>
    </rdf:RDF>
  </metadata>
  <g
     inkscape:label="Camada 1"
     inkscape:groupmode="layer"
     id="layer1"
     transform="translate(-101.034,-98.3446)">
    <path
       id="path4600-8-6-6"
       style="display:inline;opacity:1;vector-effect:none;fill:#ffffff;fill-opacity:1;stroke:none;stroke-width:1.576715;stroke-linecap:butt;stroke-linejoin:miter;stroke-miterlimit:4;stroke-dasharray:none;stroke-dashoffset:0;stroke-opacity:1"
       d="m 205.776,139.855 c 2.014,0 3.422,-0.38 4.239,-1.112 0.761,-0.761 1.217,-1.627 1.217,-2.653 0,-1.17 -0.285,-2.073 -0.978,-2.71 -0.666,-0.665 -1.465,-1.141 -2.416,-1.531 -0.951,-0.38 -2.006,-0.761 -3.156,-1.037 -1.151,-0.286 -2.197,-0.665 -3.157,-1.197 -0.95,-0.476 -1.759,-1.142 -2.406,-1.959 -0.664,-0.76 -0.99,-1.96 -0.99,-3.452 0,-0.856 0.19,-1.692 0.476,-2.538 0.286,-0.856 0.762,-1.617 1.456,-2.311 0.664,-0.665 1.539,-1.255 2.604,-1.702 1.056,-0.476 2.349,-0.664 3.871,-0.664 0.855,0 1.749,0.09 2.595,0.284 0.854,0.19 1.608,0.38 2.282,0.57 0.666,0.286 1.207,0.476 1.617,0.856 0.378,0.285 0.57,0.666 0.57,0.951 0,0.285 -0.1,0.665 -0.38,1.112 -0.285,0.476 -0.57,0.666 -1.038,0.666 -0.19,0 -0.474,0 -0.759,-0.19 -0.286,-0.19 -0.665,-0.285 -1.161,-0.476 -0.475,-0.191 -0.988,-0.379 -1.587,-0.475 -0.57,-0.19 -1.293,-0.19 -2.072,-0.19 -0.989,0 -1.826,0.1 -2.491,0.38 -0.668,0.285 -1.218,0.571 -1.646,1.009 -0.476,0.379 -0.76,0.855 -0.856,1.348 -0.19,0.477 -0.286,0.961 -0.286,1.38 0,1.026 0.286,1.807 0.981,2.339 0.664,0.571 1.473,0.961 2.442,1.292 0.971,0.381 2.026,0.667 3.158,0.961 1.131,0.286 2.176,0.761 3.156,1.274 0.971,0.571 1.779,1.293 2.434,2.225 0.667,0.951 0.98,2.196 0.98,3.793 0,2.121 -0.762,3.785 -2.226,5.011 -1.483,1.218 -3.584,1.826 -6.312,1.826 -1.236,0 -2.368,-0.1 -3.394,-0.38 -1.029,-0.286 -1.902,-0.571 -2.627,-0.951 -0.758,-0.381 -1.282,-0.76 -1.691,-1.245 -0.381,-0.476 -0.571,-0.856 -0.571,-1.265 0,-0.38 0.09,-0.76 0.382,-1.065 0.189,-0.38 0.569,-0.571 0.854,-0.571 0.285,0 0.57,0.1 0.855,0.381 0.286,0.286 0.762,0.57 1.245,0.856 0.475,0.285 1.152,0.57 1.913,0.855 0.76,0.285 1.739,0.381 2.938,0.381 m -48.473,-5.248 c 0,1.73 0.379,2.946 1.084,3.631 0.76,0.666 2.007,1.036 3.841,1.036 h 1.483 c 0.476,0 0.856,0.191 1.171,0.476 0.286,0.286 0.473,0.666 0.473,1.066 0,0.379 -0.187,0.76 -0.473,1.112 -0.286,0.284 -0.666,0.475 -1.171,0.475 h -1.483 c -2.757,0 -4.839,-0.57 -6.255,-1.835 -1.418,-1.217 -2.122,-3.204 -2.122,-5.961 v -27.946 c 0,-0.379 0.19,-0.664 0.571,-0.95 0.379,-0.19 0.761,-0.38 1.14,-0.38 0.382,0 0.856,0.09 1.189,0.38 0.38,0.19 0.57,0.571 0.57,0.95 v 10.66 h 6.846 c 0.381,0 0.666,0.19 0.857,0.379 0.188,0.287 0.379,0.667 0.379,0.999 0,0.381 -0.1,0.761 -0.379,1.007 -0.191,0.287 -0.476,0.476 -0.857,0.476 h -6.846 z M 129.31,119.204 c -0.09,-0.191 -0.19,-0.286 -0.19,-0.477 0,-0.475 0.286,-0.855 0.762,-1.16 0.474,-0.284 0.95,-0.475 1.406,-0.475 0.286,0 0.57,0.1 0.762,0.191 0.19,0.08 0.378,0.284 0.474,0.57 l 7.264,19.511 6.837,-19.511 c 0.189,-0.476 0.569,-0.761 1.168,-0.761 0.478,0 0.856,0.191 1.38,0.475 0.474,0.286 0.76,0.761 0.76,1.218 v 0.189 c 0,0 0,0.191 -0.1,0.191 l -8.226,22.277 c -0.57,1.445 -1.103,2.947 -1.721,4.507 -0.664,1.56 -1.351,2.986 -2.195,4.298 -0.856,1.302 -1.836,2.387 -2.949,3.233 -1.113,0.856 -2.406,1.274 -3.897,1.274 -0.476,0 -0.856,-0.09 -1.132,-0.285 -0.287,-0.191 -0.474,-0.571 -0.474,-1.217 0,-0.381 0,-0.76 0.284,-1.084 0.19,-0.381 0.476,-0.477 0.855,-0.477 0.855,0 1.655,-0.284 2.434,-0.855 0.761,-0.57 1.502,-1.292 2.178,-2.223 0.666,-0.952 1.273,-2.027 1.807,-3.263 0.476,-1.236 0.95,-2.548 1.264,-3.927 z m -10.971,7.52 9.174,13.425 c 0.191,0.287 0.191,0.475 0.191,0.761 0,0.381 -0.191,0.76 -0.57,1.16 -0.382,0.38 -0.855,0.57 -1.274,0.57 -0.476,0 -0.855,-0.19 -1.065,-0.665 l -8.909,-13.102 -4.877,4.298 v 7.901 c 0,0.38 -0.191,0.666 -0.477,0.96 -0.284,0.285 -0.76,0.38 -1.245,0.38 -0.475,0 -0.856,-0.19 -1.217,-0.38 -0.285,-0.285 -0.476,-0.57 -0.476,-0.96 v -37.805 c 0,-0.38 0.191,-0.664 0.476,-0.95 0.285,-0.191 0.761,-0.381 1.217,-0.381 0.476,0 0.95,0.1 1.245,0.381 0.286,0.191 0.477,0.57 0.477,0.95 v 25.825 l 12.94,-11.505 c 0.189,-0.1 0.284,-0.19 0.38,-0.19 0.1,-0.1 0.286,-0.1 0.381,-0.1 0.38,0 0.855,0.189 1.187,0.475 0.382,0.285 0.569,0.666 0.569,1.151 0,0.19 0,0.38 0,0.475 0,0.19 -0.187,0.285 -0.283,0.476 z m 61.089,-9.576 c -7.122,0 -12.892,5.773 -12.892,12.894 0,7.113 5.77,12.885 12.892,12.885 7.111,0 12.884,-5.772 12.884,-12.885 0,-7.121 -5.772,-12.894 -12.884,-12.894 z m 0,3.139 c 5.38,0 9.755,4.365 9.755,9.755 0,5.392 -4.373,9.755 -9.755,9.755 -5.392,0 -9.755,-4.363 -9.755,-9.755 0,-5.39 4.363,-9.755 9.755,-9.755 z m 0,4.688 c -2.806,0 -5.068,2.263 -5.068,5.067 0,2.795 2.262,5.068 5.068,5.068 2.795,0 5.069,-2.273 5.069,-5.068 0,-2.804 -2.274,-5.067 -5.069,-5.067 z"
       inkscape:connector-curvature="0"
       inkscape:transform-center-x="6.2895"
       inkscape:transform-center-y="16.3519" />
  </g>
</svg>
